<?xml version="1.0" encoding="utf-8"?>
<!-- Generator: Adobe Illustrator 19.0.0, SVG Export Plug-In . SVG Version: 6.00 Build 0)  -->
<svg version="1.1" id="Layer_1" xmlns="http://www.w3.org/2000/svg" xmlns:xlink="http://www.w3.org/1999/xlink" x="0px" y="0px"
	 viewBox="0 0 500 500" style="enable-background:new 0 0 500 500;" xml:space="preserve">
<style type="text/css">
	.st0{fill:#F9DC3E;}
</style>
<g id="XMLID_1_">
	<path id="XMLID_2_" d="M317.8,191.5l-0.1-0.8l-1.3,0.1l0.1,0.8L317.8,191.5z M326.3,212l0,0.4l0.9-0.1c0-0.3,0.1-0.7,0.3-1.2
		l-0.1-0.8C327.1,210.4,326.7,211,326.3,212z M293.1,237.8c-0.1-0.7-2.3-3.6-6.8-8.5c-0.1-0.9,1.5-2.3,4.6-4.1l9-7.8
		c2-2.6,3.2-6.7,3.6-12.5l-0.1-1.3c-0.4-4-3.2-7.2-8.7-9.7c-3.2-2.2-9.1-3.4-17.5-3.6c-7,0.6-16,3.1-27.2,7.5
		c-3.1,2.2-6.6,4.4-10.5,6.6l0.1,0.7c0.2,0,0.6-0.2,1.1-0.5c0.5-0.1,0.7,0.2,0.8,0.6l0.7-0.4l0.3,0l0,0.3c0,0.4-2.4,2.3-7.3,5.7
		l0.4,0.7l-0.3,0l-0.8-0.3c0,0.2-0.3,0.4-1,0.5l0,0.3l0.8,1c-0.2,0-0.6-0.1-1.1-0.3c-1.1,0.1-2.2,0.7-3.3,1.8l0.5-2
		c1.6-7.1,2.8-13.4,3.4-18.8l-0.1-0.4c-1.1-0.7-2.2-1.8-3.3-3c0-0.8,0-1.3,0-1.4l-0.1-0.3l-0.3,0.1c-3.6,5.3-10.4,14.4-20.6,27.3
		c-7.7,9.2-11.7,14.3-12,15.3c-3.2,3.3-4.7,5.2-4.5,5.9c-0.8,0.5-1.2,1.1-1.1,1.7c-0.2,0.1-0.4,0-0.5-0.3c-1.3,2.2-3.3,3.6-6,4.2
		l-2.8,0.6c-0.4,0.1-0.6,0.4-0.5,0.8l0.1,0.4l1.1-0.2l0.1,0.3l-2.4,0.9l-4.2,1l-2.2,0.1c-0.3,0.3,1.8,0,0.9,0.2l-2.7,0.6
		c-1.7,0.4-2.6,0.2-2.7-0.4l-0.3,0.1c0.1,0.3,0.1,0.5,0,0.7l-0.2-0.7l-2.2,0.5c-0.2-1-3.2-4.7-8.9-11.2c-0.1-1.2,1.9-3,6.1-5.4
		l11.8-10.4c2.6-3.4,4.2-8.8,4.7-16.3l-0.2-1.8c-0.5-5.3-4.3-9.5-11.5-12.8c-4.3-2.9-11.9-4.4-23-4.7c-9.2,0.8-21.1,4-35.9,9.7
		c-4,2.9-8.7,5.8-13.8,8.7l0.1,0.9c0.4,0,0.8-0.2,1.4-0.5c0.6-0.1,0.9,0.2,1,0.8l0.9-0.5l0.5,0l0,0.4c0,0.4-3.2,2.9-9.7,7.5l0.5,0.8
		l-0.5,0l-1-0.4c0,0.3-0.4,0.5-1.4,0.5l0.1,0.5l1.1,1.2c-0.3,0-0.8-0.1-1.5-0.3c-2.1,0.2-4.2,1.7-6.2,4.6l0.5,0.8
		c1.8-1.6,2.8-2.4,3.1-2.5l0.1,1.3c-0.3,0-0.8,0.2-1.4,0.5l1.1,1.7c2.1-2.3,4.5-4.3,7-5.9c1.3,0.3,1.9,0.7,2,1.2l1-0.1
		c7-5.1,13.8-8.9,20.6-11.2l0.1,0.9c-1.3,1.9-2.1,2.9-2.6,2.9c0.1,0.6,0.3,1.2,0.7,1.7c0.1,1.2-3,9-9.3,23.4
		c-14.3,33.6-26.2,58.4-36,74.5c0,0.3,0.2,0.8,0.6,1.3c2.4-0.6,3.9-1.2,4.6-1.7l0.5-0.1l0.1,0.9l0.9-0.1l0.9-0.5
		c0,0.3,0.3,0.4,0.9,0.4l0.1,0.9c0.1,0.9-0.4,2.2-1.5,4.1c-1,1.1-2,3.4-3.1,7l0,0.4l0.9-0.1c3.9-4.3,6.8-8.6,8.8-12.8
		c11.3-3.3,19.9-6.6,25.9-9.8c6-0.5,10.6-2.1,13.7-4.7l-0.1-0.5l-2.3,0.7l-0.5,0.1l-0.1-0.5c4.4-0.7,7.5-1.6,9.2-3
		c8.6-6.6,15.1-11.3,19.5-14.1c9-6.6,14.9-13.1,17.6-19.4c0.5-0.1,1-0.2,1.5-0.4c1.3-0.1,2-0.1,2.2-0.1c-0.1-0.2,0.1-0.4,0.3-0.4
		c2-0.2,1.1,0.1,2.3-0.2l3.4-0.8c-0.2,0.1-0.3,0.2-0.2,0.4l0.5-0.3c-0.1,0-0.2,0-0.3-0.1l0.6-0.1l-0.3,0.2c0.4,0.1,0.8,0,1.2-0.1
		l0.2,1l-15.4,24.6l-3.4,4.3l-1.7,5.6l0.3-0.1l1.7-0.7l-0.5,2.2l0.2,0.6l0.5,0.6c-0.2,0.1-0.3,0.2-0.2,0.4l0.1,0.4l0.7-0.2
		c1-0.9,1.5-1.7,1.3-2.4c1.1,0.2,1.8,0.3,2.2,0.2l0.1,0.3c-0.7,0.2-1,0.7-1.1,1.6l0.1,0.4l0.4-0.1c5.6-6.1,19.4-27.1,30.4-41.3
		c-0.4-1.5,5.4-3.7,17.3-6.4l0.4-0.1c0.4,1.9-0.5,6.4-2.7,13.5c-1.5,4.3-2.2,6.7-2,7.1c-1.9,5.7-2.8,8.8-2.7,9.3l-4.2,13.8
		c-2.7,7.1-4.8,14.5-6.3,22.3c0.2-0.1,0.6,0,1.2,0.1l0.6-0.5c0.1,0.2,0.2,0.3,0.5,0.3l-0.2-1l1.8-0.1c0.5-0.1,1-0.8,1.4-2
		c-0.1-1.9,0.3-2.9,1.1-3.1c1.1-4.4,1.8-6.6,2.1-6.7c1.1-4.4,1.8-6.9,2.3-7.5c1.6-5.7,2.7-8.7,3.5-8.8l0.2,0.7l-1.2,3
		c-2,9-4.1,16.1-6.1,21.3l0.6,2.6l0.4-0.1c5-10.8,12.2-32.1,21.6-64.1c0.3-2.8,1.6-5,4-6.5l-0.5-0.6l-0.1-0.3
		c1.1-0.2,1.8-0.7,2.3-1.3c-0.1-0.2-1-0.6-2.8-1.1l4.7-20.1c1-0.9,1.6-1.4,1.8-1.4l0.1,1c-0.2,0-0.6,0.2-1.1,0.5l0.9,1.3
		c1.6-1.8,3.4-3.3,5.3-4.5c1,0.3,1.5,0.6,1.5,0.9l0.7-0.1c5.3-3.9,10.6-6.7,15.7-8.4l0.1,0.7c-0.9,1.4-1.6,2.2-1.9,2.2
		c0.1,0.5,0.2,0.9,0.4,1.3c0.1,0.9-2.2,6.8-7,17.8c-10.8,25.5-19.9,44.3-27.3,56.6c0,0.2,0.2,0.6,0.5,1c1.8-0.4,3-0.9,3.4-1.3l0.3,0
		l0.1,0.7l0.8-0.1l0.7-0.4c0,0.2,0.3,0.3,0.7,0.2l0.1,0.7c0.1,0.6-0.3,1.7-1.2,3.1c-0.8,0.8-1.6,2.6-2.5,5.3l0,0.4l0.7-0.1
		c2.9-3.3,5.2-6.5,6.7-9.7c8.6-2.5,15.1-5,19.7-7.4c4.6-0.4,8.1-1.6,10.5-3.6l0-0.4l-1.8,0.5l-0.4,0l0-0.4c3.3-0.5,5.7-1.2,7-2.2
		c6.5-5,11.5-8.6,14.8-10.7C288.8,252.1,293.7,244.8,293.1,237.8z M291.3,238.3l0.2,2.7c-0.3,0.7-0.7,1-1,1.1l-0.4-4.6
		C290.9,237.7,291.3,238,291.3,238.3z M87.2,216.3l-0.5,0l-0.1-0.8l1.9-0.2l0,0.4C88.3,215.8,87.8,216,87.2,216.3z M78.1,307.2
		c-1.1-0.5-2-0.7-2.9-0.6l-0.1-1.3c-0.1-0.5,0.2-0.9,0.9-1c0.6-0.1,0.9,0.4,1,1.2c1.6-1.9,2.4-2.9,2.6-2.9l1,0.4
		C80.3,305.7,79.4,307.1,78.1,307.2z M175.2,205.7c-0.5,0.1-1.4-1.4-2.7-4.2l-0.1-0.8c0.9-0.1,1.8,1.3,2.7,4.2L175.2,205.7z
		 M173.9,195.6l-0.4,0.9l-13.2-5.5C169.1,191.3,173.7,192.8,173.9,195.6z M118.2,243.4l-1.9,0.2l-0.1-0.8l1.9-0.2L118.2,243.4z
		 M116.7,214.7l0.5,0l0.1,1.3c-0.4,0-1,0.7-1.7,1.9l-0.1-0.9C116.3,216,116.8,215.2,116.7,214.7z M112.8,223.9l0.2,1.8l-0.5,0
		l-0.2-1.8L112.8,223.9z M110.8,227.2l0.9-0.1c-0.1,1.5-0.5,2.2-1.2,2.3l-0.5,0C110.6,228.5,110.8,227.7,110.8,227.2z M109.2,231.8
		l0.5-0.1l0,0.4l-0.8,1.4l-0.9,0.1l0-0.4C108.9,233.1,109.3,232.7,109.2,231.8z M107.7,235.9l-0.3,2.2l-0.5,0l-0.2-2.2L107.7,235.9z
		 M92.6,278.9c-0.6,3-1.2,4.6-1.9,4.6l0-0.4C90.5,281.6,91.1,280.2,92.6,278.9z M89.8,284.9l0,0.4c0.1,0.6-0.2,0.9-0.8,1l0-0.4
		C89,285.4,89.2,285.1,89.8,284.9z M89,297.4l1.4-0.1l0.1,0.5c-0.3,0-0.8,0.2-1.4,0.5l-0.9,0.1C88.1,297.9,88.4,297.6,89,297.4
		L89,297.4z M128.9,285.1c-7.9,3.9-12.5,6.5-13.9,7.9c-8.5,3-12.8,4.8-12.7,5.5c-7.6,3-12.6,5.2-15,6.6c-0.6,0.1-1.4-0.2-2.5-0.6
		c-0.1-1.5,0.6-2.8,2-3.8c1.3-0.1,2.6,0.1,3.8,0.6c1.4-0.7,3.9-1.5,7.3-2.4l-0.1-0.9l-2.8,0.2c0.3-0.5,3-1.8,8.1-3.8l1.4-0.1l0,0.4
		c-2.4,0.2-3.7,0.9-4,2.2c0.1,0.6,0.4,0.8,1,0.8c1.8-1.1,2.7-1.8,2.7-2c3.4-0.6,12.9-5.6,28.4-14.9l0.1,0.8
		C132.9,282,131.6,283.1,128.9,285.1z M105.1,292.9c2.3-0.2,4.2-1.1,5.8-2.7c0.6-0.1,1,0.2,1,0.8c-1.1,0.1-3.2,1-6.3,2.8l-0.5,0
		L105.1,292.9z M143.5,263.4l-11.9,9.4c-8.8,5.8-13.6,8.7-14.3,8.8c-14.1,7.7-22.8,11.8-26.2,12.1l-0.5,0.1
		c0.4-1.6,6.7-14.4,18.8-38.5c5.3-0.5,13.7-2.9,25.2-7.5l2.8-0.2c5.8-0.5,10.1,0.6,13,3.3l0.2,1.8
		C148.4,258.8,146.1,262.4,143.5,263.4z M120.3,250.4l1.9-0.2l0,0.4l-1.9,0.2L120.3,250.4z M147.1,245.8l1.4-0.1
		c1.3,0.6,2,1.2,2,1.6l0,0.4C149.3,247.9,148.2,247.2,147.1,245.8z M150.9,224.2c-1.2,1.5-4.6,4-10.2,7.6c-1.8,0.2-8.7,2.8-20.5,8
		c-0.6-0.3-1.2-0.4-1.9-0.3l-0.1-0.8c-0.1-1.7,0.6-3.8,2.3-6.4c0.9-4.9,1.9-7.6,3-8.3l9.8-22.1c-0.1-1.4,2-2.4,6.3-3.2l1.4-0.1
		l0.1,1.3c4.2-0.6,6.9-1,7.9-1.1c7.8-0.7,11.9,0.9,12.2,4.7l0.9-0.1l-0.2-2.2l1-0.1c2.3,1.3,3.5,2.8,3.7,4.6c0.1,1.2-0.6,2.8-2,4.6
		c-0.6,0.1-0.9-0.4-1-1.2l-1,0.1l-0.2,2.7c-4,5.9-6.8,9-8.6,9.1C152.3,223,151.3,224.1,150.9,224.2z M157,239.7
		c-0.8-0.5-1.5-0.8-1.9-0.8l-0.1-1.3l0.9-0.1l2,1.2C157.9,239.3,157.6,239.6,157,239.7z M163.2,247.1c0.9,0.4,1.4,0.7,1.5,1.1
		l-0.4,0.1l0,0c-0.1,0-0.2,0-0.3,0.1l-0.6,0.5L163.2,247.1z M163.8,250.8l-0.1-0.4l1.1-0.3l0.1,0.4L163.8,250.8z M166.5,253.8
		c1.2-0.2,1.7-0.3,3.9-0.8l0.1,0.4l-4.1,0.9C166.5,254.2,166.5,254,166.5,253.8z M170.5,255.5c-1.7,0.2-1.3-0.1-4.1,0.6l-0.1-0.4
		l3.4-1.1l1.6-0.4l0.2,0.6C170.9,255.1,171.4,255.1,170.5,255.5z M174.2,254.7c-0.4,0.1-0.7-0.1-0.9-0.5l1.1-0.2
		c0.5-0.1,0.8,0.1,0.9,0.5L174.2,254.7z M184,244.1l-0.1-0.4l1.7-0.4l0.2,0.6L184,244.1z M194.6,308.7c0.1-0.5,0.1-0.8,0.1-1.1
		l0.4-0.1c0.5-0.1,0.7,0.1,0.8,0.5l0.1,0.4L194.6,308.7z M202,246.8l-0.8-0.1c-1.2,0.5-2.2,0.8-3.1,1l-0.7,0.2
		c-0.4,0.1-0.7-0.1-0.9-0.5l4.9-1.1l1.6-0.8l0.5,0.6C202.9,246.3,202.3,246.5,202,246.8z M205.8,245.6l-0.1-0.3
		c0.2-0.1,0.6-0.2,0.9-0.6l3.5-0.8l0.1,0.4C208.3,244.7,206.8,245.1,205.8,245.6z M206.3,238.5c-0.2,0.1-0.6,0.3-1,0.6
		c-0.1-0.2-0.5-0.2-1.5,0c-0.2-0.7,2.4-1.6,7.8-2.9l0.8-0.2l0.2,0.6C208.8,237.8,206.7,238.4,206.3,238.5z M215.7,228.3
		c-0.4,4.3-1.9,6.7-4.6,7.3l-0.1-0.4l-2.4,0.9l-1.1,0.2c-0.5,0.1-1,0.1-1.5,0l-0.2-0.9c-0.1-0.4,3.3-5.1,10.3-14.2l0.8,0.1
		C217.4,222.7,217,225,215.7,228.3z M232.4,214.1l-0.3,0l-0.1-0.7l1.4-0.1l0,0.4C233.2,213.7,232.9,213.8,232.4,214.1z M225.6,283.1
		c-0.8-0.4-1.5-0.5-2.2-0.5l-0.1-1c0-0.3,0.2-0.6,0.6-0.7c0.5-0.1,0.7,0.3,0.8,1c1.2-1.5,1.8-2.2,1.9-2.2l0.7,0.3
		C227.1,281.9,226.5,283,225.6,283.1z M299.3,206c-0.4,0-1-1.1-2.1-3.2l-0.1-0.7c0.7-0.1,1.4,1,2.1,3.2L299.3,206z M298.3,198.3
		L298,199l-10-4.2C294.6,195,298.1,196.2,298.3,198.3z M256,234.6l-1.4,0.1l-0.1-0.7l1.4-0.1L256,234.6z M254.8,212.8l0.4,0l0.1,1
		c-0.3,0-0.8,0.5-1.3,1.5l-0.1-0.7C254.6,213.8,254.9,213.2,254.8,212.8z M251.9,219.8l0.1,1.3l-0.4,0l-0.1-1.3L251.9,219.8z
		 M250.3,222.3l0.7-0.1c-0.1,1.1-0.4,1.7-0.9,1.8l-0.4,0C250.1,223.3,250.3,222.7,250.3,222.3z M249.2,225.8l0.3,0l0,0.3l-0.6,1.1
		l-0.7,0.1l0-0.4C248.9,226.8,249.2,226.4,249.2,225.8z M248,228.9l-0.2,1.7l-0.3,0l-0.1-1.7L248,228.9z M236.5,261.6
		c-0.5,2.3-0.9,3.4-1.5,3.5l0-0.3C235,263.6,235.4,262.5,236.5,261.6z M234.4,266.1l0,0.3c0.1,0.5-0.2,0.8-0.6,0.8l0-0.4
		C233.7,266.5,233.9,266.3,234.4,266.1z M233.8,275.6l1.1-0.1l0,0.4c-0.2,0-0.6,0.2-1.1,0.4l-0.7,0.1
		C233.1,276,233.3,275.7,233.8,275.6z M264.1,266.3c-5.9,2.9-9.5,4.9-10.6,6c-6.5,2.3-9.7,3.7-9.6,4.2c-5.7,2.3-9.5,3.9-11.3,5
		c-0.4,0-1.1-0.1-1.9-0.5c-0.1-1.2,0.4-2.1,1.6-2.8c1-0.1,2,0.1,2.9,0.4c1.1-0.5,2.9-1.1,5.6-1.8l-0.1-0.7l-2.2,0.2
		c0.3-0.4,2.3-1.3,6.2-2.9l1.1-0.1l0,0.3c-1.8,0.2-2.9,0.7-3.1,1.7c0,0.4,0.3,0.6,0.8,0.6c1.3-0.9,2-1.4,2-1.6
		c2.6-0.5,9.8-4.2,21.5-11.3l0.1,0.7C267.1,263.9,266.1,264.8,264.1,266.3z M246,272.2c1.8-0.2,3.2-0.8,4.5-2
		c0.5-0.1,0.7,0.2,0.8,0.6c-0.8,0.1-2.4,0.8-4.8,2l-0.4,0L246,272.2z M275.2,249.8l-9,7.2c-6.7,4.4-10.4,6.6-10.9,6.7
		c-10.7,5.9-17.3,8.9-19.9,9.1l-0.4,0c0.3-1.2,5.1-10.9,14.3-29.2c4-0.4,10.4-2.3,19.1-5.7l2.2-0.2c4.4-0.4,7.7,0.5,9.8,2.6l0.1,1.3
		C278.9,246.2,277.1,249,275.2,249.8z M257.5,239.9l1.4-0.1l0,0.4l-1.4,0.1L257.5,239.9z M278,236.4l1.1-0.1c1,0.5,1.5,0.9,1.5,1.3
		l0,0.3C279.7,238,278.8,237.5,278,236.4z M280.8,220c-0.9,1.1-3.5,3.1-7.7,5.8c-1.4,0.1-6.6,2.1-15.5,6c-0.4-0.2-0.9-0.2-1.4-0.2
		l-0.1-0.7c-0.1-1.3,0.5-2.9,1.7-4.9c0.7-3.7,1.5-5.8,2.3-6.3l7.5-16.8c-0.1-1,1.5-1.8,4.7-2.4l1.1-0.1l0.1,1c3.2-0.5,5.2-0.8,6-0.9
		c5.9-0.5,9,0.7,9.3,3.6l0.7-0.1l-0.1-1.6l0.7-0.1c1.7,0.9,2.6,2.1,2.7,3.4c0.1,1-0.4,2.2-1.4,3.5c-0.5,0.1-0.7-0.3-0.8-1l-0.7,0.1
		l-0.2,2c-3,4.6-5.2,6.9-6.6,7C281.9,219.1,281.1,220,280.8,220z M283.9,231.2l-0.1-1l0.7-0.1l1.5,0.9c0,0.4-0.2,0.7-0.6,0.7
		C284.8,231.4,284.3,231.2,283.9,231.2z M158.5,296.7l-0.7,0.2l-0.6,0.5c0.1,0.4,0.4,0.6,0.8,0.5c0.5-0.1,0.6-0.4,0.5-0.8
		L158.5,296.7z M155.8,291.4l0.1,0.4c0.5-0.1,0.6-0.4,0.5-0.8l-0.1-0.4C155.9,290.7,155.7,290.9,155.8,291.4z M174.8,246.2l0.8-0.2
		l-0.2-0.7l-0.8,0.2L174.8,246.2z M419.4,266.8c-8.2,1.8-9.2,1.5-10.9,1.6l0.1,0.7l0.8-0.1l0.4,0l-0.1-0.1l0.9-0.4
		c8.1-0.9,9.1-0.6,9-1.5L419.4,266.8z M375.2,272.6l0.1,0.7h0.1l-0.1-0.7H375.2z M370.2,254.8l-0.7-0.2c-0.6,1.6-0.9,2.5-0.9,2.8
		l0,0.3C369.2,257.7,369.7,256.7,370.2,254.8z M421,266.6l0.1,0.7l1.2,0.2l-0.1-0.7L421,266.6z M365.3,273.4l-1.8-0.2l-0.3,0.7
		l0,0.4l10.9-0.9l-0.1-0.7L365.3,273.4z M360.3,249.5l0-0.4l-0.4,0l-0.7,0.4l0.4,0.6C360.1,250.2,360.4,250,360.3,249.5z
		 M426.2,261.7l0.5-0.1c0.3,0,0.4-0.3,0.4-0.7l-0.3-0.6c-1.9,0.2-2.7,0.2-4.2,1.1l0-0.4l-2.2,0.2c-0.1-0.7-0.2-1-0.5-1l-1.2,0.1
		c-1.3,0.1-2,0.1-2.7,0.6c0-0.2-0.1-0.4-0.2-0.4l-1.3,0.1l-0.8,0.4c0-0.2-0.1-0.4-0.2-0.4l-0.5,0.4l0-0.4l-1.8-0.1l-0.4,0l0.1,0.7
		l0.9,0.2l0.9-0.1c0.3,0.2,0.6,0.2,1,0.2l0.8-0.4l0,0.3c-4.2,1.1-4.2,0.9-7.1,1.3c-0.3-0.2-0.6-0.3-0.7-0.3l-0.1,0.1
		c-0.3,0-0.5-0.2-0.5-0.6l1.5-0.2c0.1,0,0.2,0.1,1,0.3c1.2-0.6,1.3-0.8,1.9-0.9l-0.1-0.7c-4.2,0.8-2.5,0.3-7.7,0.7l-0.2,0l-0.1-0.7
		c6.7-0.8,4.4-0.4,6.7-1c0,0.2,0.1,0.4,0.2,0.4c0.3-0.3,0.6-0.4,0.9-0.5l0.5,0c2.3-0.2,3.1,0.3,7.8-1l0,0.3l0.8-0.4l0.7-0.1
		c-0.1-0.7,1-0.8,1.3-0.8l-0.1-0.7c-8.1,1.6-10.3,1.2-12.5,1.8l0-0.3c-2.1,0.4-2.2,0.2-2.7,0.2c-0.2,0-0.4,0.2-0.7,0.4
		c0-0.2-0.1-0.4-0.3-0.4c-0.1,0-0.1,0-0.1,0l-6.9,1.1c0-0.2-0.1-0.3-0.3-0.3c-3.6,0.8-2.6,0.9-7.4,1.3c-0.2,0-0.5,0.1-0.9,0.4
		c0-0.2-0.1-0.3-0.4-0.3l-2.9,0.2l-2,0.5c0-0.2-0.1-0.3-0.4-0.3c-1.1,0.3-2.1,0.5-2.9,0.5h-0.1c-0.5,0.1,0.2-0.1-0.1-0.3l-0.6,0.4
		c-0.9,0.1-0.4-0.1-3.4,0c-5.2,0.6-4.6,0.7-5.2,0.8l-1.9-0.1c0,0.2-0.1,0.3-0.3,0.3c-2.2-0.3-3.3-0.6-3.4-1.1
		c0.3-2.1,0.8-3.2,1.5-3.2l0.4,0l-0.3,0.7l0.4,0c0.7-0.4,1-0.7,1-1.1l-0.1-0.7l-0.7,0.1L368,257c-0.1-0.5,0-1,0.2-1.3l1.6-2.6
		l0.1,0.7l0.8-0.1l-0.1-0.7l-0.4-0.6c0.6-0.5,1-0.8,1.3-0.8l0-0.4l-1,0.1l-0.1-1c2-4.3,3-6.7,3-7.4l0.7,0.3c0.5,0,0.7-0.3,0.6-0.8
		l-0.7,0.1l0-0.3c-0.1-0.5,0.1-1,0.3-1.4c1.1-1.2,1.6-2.3,1.5-3.5c0.2,0,0.3,0.1,0.4,0.3c0.9-0.5,1.7-2,2.2-4.3
		c1.7-3,4-9.1,7.1-18.1c5.9-16,5.7-17.7,6.5-21.4l-0.7,0.1c0.1,0.5-0.1,0.9-0.3,1.4c-0.5-0.2-0.9-0.3-1.1-0.3l0-0.3
		c-0.1-1.4,0.5-3,1.8-5l0.3,0l0.6,2.3l0.7-0.1c0-0.2,0.2-1.1,0.5-2.8c0-0.4-0.3-0.6-0.8-0.6l-0.7,0.4c-0.1-0.5,0-1.8,0.1-3.8l-0.4,0
		c-0.6-0.6-0.9-1.1-0.9-1.5l-3.9,0.4c0-0.3-0.2-0.7-0.4-1.2c0-0.4,0.8-0.7,2.6-1.1l0.8,0.3l0.7-0.4c0,0.2,0.2,0.4,0.4,0.3l0.7-0.4
		c0,0.2,0.2,0.3,0.4,0.3l0.4,0l-0.1-0.8c-0.5,0.1-2,0.1-4.2,0l-0.7,0.5l0-0.4c-18.1,1.5-28.4,2.3-30.8,2.6c-0.3,0-1.6,0-3.8-0.1
		c0,0.3-0.2,0.5-0.8,0.5l-0.8-0.4l-2.6,0.7c-0.6,0.1-1.7,0-3.1-0.1c-0.4,0.3-0.9,0.5-1.5,0.6c-0.3,0,3.9-0.2,7.7-0.5
		c-0.4,0.3-1,0.5-1.9,0.6c-0.6,0.1-1.1,0-1.5-0.3c-0.6,0.3-2.5,0.7-5.7,1.3l-0.8-0.3l-12.6,1.9c-0.5-0.2-1.1-0.3-1.7-0.3
		c-0.7,0.1-1.8,0.3-3.4,0.7l-6.1,2.5l0.5,0.8c0.3,0,0.7-0.2,1.2-0.5l2.2,0.2l-0.3,2c-2,0.9-3.2,2.2-3.5,3.9c-3,1.3-4.5,2.3-4.5,2.8
		l0,0.4l0.5,0l0.8-0.4l0.9,1.1l0.1,1.6c0.1,0.5-5,11.1-15.1,31.8c-8.7,19.9-13.3,30.9-13.7,32.8c-3,0.8-4.7,2-5.2,3.7
		c0.1,0.5,0.9,0.9,2.7,1l0.1,0.8l-0.8,1.3l0.1,1.6c0.1,0.8,2.3,1.4,6.6,1.9c0-0.3,0.1-0.4,0.4-0.5c0.1,1-0.2,2.9-0.8,5.7l0.5,0
		c1.8-2.4,2.6-4.1,2.5-5l0.4,0c0.4,0,0.9,0.5,1.4,1.5c-0.5,0.2-2.4,4.5-5.7,12.9l0.5,0.8l0.5,0c4-10,6.4-15.6,7.5-16.6
		c5.2-0.5,14.2-1.4,27-2.7l0.8-0.5c0,0.3,0.2,0.4,0.5,0.4l0.8-0.1l0.8-0.5c0,0.3,0.2,0.4,0.5,0.4l9.7-0.8c2.6-0.2,3.8-1,3.7-2.3
		c0-0.4,1.5-0.8,4.5-1.2c0.3,0,0.7,0.1,1.3,0.2c0-0.2,1.5-0.5,4.6-0.8c0.1-1.6,0.6-2.5,1.5-2.6l-0.1-0.8c-0.9,0.1-1.8,0.3-3,0.7
		c-2-0.1-3.3-0.3-3.9-0.5c-0.5,0.3-0.9,0.5-1.2,0.5l-6.7,0.2l-0.8,0.4c0-0.2-0.2-0.4-0.5-0.3l-0.4,0l-0.9,0.4c0-0.2-0.7-0.4-2.1-0.6
		l-0.9,0.5l-1.7,0.1l0-0.4c8.7-0.9,13-2.1,12.9-3.5c0.6-0.1,0.9,0.2,0.9,0.8l2.5-0.6l-0.1-0.8l-20.8,0.6c0,0.3-0.1,0.4-0.4,0.5
		l-2.5-0.2c-0.6,0.1-1.2,0.2-1.6,0.6l-0.9-0.4c-2.6,0.2-4.6,0.5-5.8,0.9c-1.8-0.1-3.7-0.1-5.9,0.1l-4.7,0.4l-2.2-0.2
		c-0.1-1.4,2.6-8.1,8.1-20.3c1.6-4.1,3-6.7,4.4-7.6c0.3,0,0.7,0.1,1.3,0.3l3.3-1.1l1.7,0.3c2.9-0.2,6.2-1.1,10-2.5
		c0.9-0.1,1.6,0,2.2,0.2l2.5-0.6l7.5-0.6c3.2-0.3,6.7-1,10.5-2.1l-0.1-0.8c-1.4,0.1-2.1-0.1-2.2-0.7c-0.1-1.1-1.1-1.5-3.1-1.3
		l-0.1-0.8l2.1-0.6l5.4-0.5l-0.1-0.8c-0.2,0-1.3,0-3.4-0.1l-0.1-0.8l2.1-0.2c0.6-0.1,0.8-0.3,0.8-0.9c-2.8,0.1-4.3-0.1-4.3-0.4
		c-19.7,1-29.6,1.2-29.7,0.5c-0.3,0-0.7,0.2-1.2,0.5l-0.5-0.8c5.2-11.1,8.3-16.7,9.2-16.8c0,0.4-0.2,1.1-0.7,2.1l0,0.3l0.8-0.1
		c2.1-5,3.8-7.5,5.3-7.6c6.2-0.5-0.9-0.9,12.4-3c0.5,0.2,0.9,0.4,1.2,0.3c5.2-1.1,12.5-2.2,21.8-3.3l-0.1-0.8l-5,0.5l-0.1-0.8
		c0.6-0.1,1.1-0.2,1.5-0.6l0,0.4c0.3,0,0.6-0.2,1.1-0.5c0.9-0.1,1.5,0,2,0.2c1.7-0.5,3.1-0.7,4.2-0.8l3.1-0.3
		c0.8-0.5,1.1-0.9,1.1-1.3l0-0.4c-0.8,0.1-1.7,0-2.7-0.2c0-0.4,0.2-0.7,0.7-0.9l5.8-0.5l2.6-0.7c0,0.3,0.2,0.4,0.4,0.4
		c0.3,0,0.6-0.2,1.1-0.5c0.1,0,0.3,0,0.4,0.1c-0.4,0.7-0.8,1.8-1.2,3.2l-0.8,0.1c-0.1-0.5-0.2-1-0.4-1.4l-0.4,0
		c-7,19.5-10.1,28.6-16.6,43.6c-1.2,3.8-2.2,6-3,6.4c0,0.4,0.3,0.6,0.8,0.6c0.2,1.9-0.3,3.7-1.3,5.6c-3,8.6-5,13.3-6,14.2l0.7,4.1
		c0,0.4-0.2,0.7-0.6,0.7l-0.7,0.1c-0.1-1.1-0.5-1.7-1.2-1.6l-0.4,0c-0.9,1.4-1.6,3.1-2.1,5l0.7-0.1c0.9-0.6,1.4-1.3,1.3-2.2l1.4-0.1
		l0.8,0.3c-0.6,1-0.9,1.8-0.9,2.5l0.4,0.6l-0.9,2.2l0,0.4c0.8-0.1,1.7,0.2,2.6,0.8c0.6-0.1,1.3-0.4,2.1-0.9c0.8-0.1,3.8-0.1,9-0.1
		l2.6-0.9c3.2,0,3.7,0.1,6.4-0.2l1.1-0.1l0.6-0.4l0,0.4c2.9-0.2,3.1-0.1,5.3,0.2l0,0.4l-1.6,0.1l0.1,0.7c0.5-0.1,0.9-0.2,1.3-0.5
		c0.4,0,0.6,0.2,0.7,0.7c-0.6,0.1-1.4,0.2-2.2,0.5l-0.7-0.2c-1.1,0.3-0.9,0.4-1.6,0.4l-1.1-0.2c0,0.2-0.1,0.3-0.3,0.3
		c0,0.4,0.3,0.6,0.7,0.6l1.1-0.1l5.9-0.5l2.2-0.5c0,0.2,0.1,0.3,0.3,0.3l1.1-0.4l2-0.2c1.6-0.1,1.5-0.2,4.9-0.8
		c0-0.2,0.1-0.3,0.2-0.3l0,0.3c5.5-0.9,5.9-1,6.8-1.3l0.1,0.2c1.4-0.3,0.6-0.2,1-0.5c0,0.2,0.1,0.4,0.2,0.4l1-0.1l-0.1-0.7l-2,0
		l0-0.1c-0.1,0-0.1,0-0.2,0.1h-0.3v0.1c-1.3,0.3-1.3,0.1-2.2,0.2l-4.9,0.3l0-0.4l2.7-0.4l1-0.1l0.6-0.4l0,0.4
		c3.9-0.3,5.3,0.6,23.2-3.2c1-0.1,0.9-0.9,1.5-2.6c-0.3,0-0.6-0.1-0.9-0.2c-1.5,0.6-2.3,0.3-5.1,0.8c-0.2,0-0.4-0.2-0.5-0.6l0-0.3
		l2.7,0.1c0.5-0.1,1.5-0.1,3-1C426.4,261.6,425.9,261.7,426.2,261.7z M293.5,263.8l-1.3,0.1c-0.1-0.5,0.6-2.5,2-5.8l0.8-0.1
		C295.1,258.8,294.6,260.7,293.5,263.8z M295,257.6l0-0.4c0-0.4,0.2-0.7,0.8-0.9l0,0.4C295.9,257.3,295.6,257.6,295,257.6z
		 M311.9,270.7l0,0.3l-2.1,0.2l0-0.4L311.9,270.7z M309.3,270.4c0,0.4-0.6,0.9-2,1.4l-2.6-0.2l-0.8,0.1l-0.1-0.8L309.3,270.4z
		 M326.4,192l-1.3,0.1l0-0.4c0-0.4,0.2-0.7,0.8-0.9l0.5,0l0.9,0.3C327.2,191.7,326.9,192,326.4,192z M345.6,188.3l0.4,0l0.1,0.8
		l-1.2,0.1C344.9,188.7,345.1,188.4,345.6,188.3z M340.8,190l-1.9-0.2l0-0.4c2.5-0.2,3.3-0.5,4.9-0.9c0,0.3,0.3,0.4,0.8,0.4l0.1,0.8
		l-0.8,0.1c-0.6,0.1-1.1,0-1.5-0.3C341.8,189.7,341.3,189.9,340.8,190z M343.2,196.9l0-0.4l3.1-0.3l0,0.4L343.2,196.9z M346.5,194.2
		l0-0.4l1.5-0.1l0,0.4L346.5,194.2z M346.9,189l-0.4,0l0.4-0.8l3.5-0.3l0,0.4C349.4,188.3,348.2,188.6,346.9,189z M348.6,196.4
		l-0.1-0.8l1.5-0.1c0.5-0.1,0.8,0.2,0.8,0.7L348.6,196.4z M357.7,183.9l-1.9,0.5l-0.4,0c-0.9,0.1-2.1,0.1-3.5-0.1
		C354.5,184.3,356.9,184.1,357.7,183.9z M355.7,192.6l0,0.4l-2.7,0.2l0-0.4L355.7,192.6z M360,194.6c0-0.3-0.5-0.5-1.6-0.6l-2.7,0.8
		l-2,0.1c-0.5-0.3-0.7-0.5-0.7-0.7l2.4,0.1l5.3-0.9l2.7,0.1l0,0.4C362.1,194.1,361,194.3,360,194.6z M387.5,187.6c0.3,0,0.5,0,0.6,0
		c0.9-0.9,2-1.6,3.2-2.2c-1,4.3-2.5,7.4-4.6,9.5l-1.5-0.9C386.5,190.8,387.3,188.6,387.5,187.6z M382.9,195.5l0.4,0
		c-0.5,1-1,1.5-1.3,1.5l-0.1-1C382.1,196,382.4,195.8,382.9,195.5z M379.9,202.6c0.7-2.9,1.4-4.6,2.1-5l0,0.4
		c-0.4,2.7-1,4.1-1.8,4.2l0.1,1.7c-0.6,0.9-0.9,1.6-0.9,2.2l-0.4,0l-0.2-2.3C379.3,203.7,379.6,203.4,379.9,202.6z M378.7,206.5
		c0,0.4-0.2,1.3-0.8,2.8l-0.4,0l-0.1-1C378,207.2,378.4,206.6,378.7,206.5z M357,269.7l0-0.3l0.7-0.1l0.1,1
		C357.3,270.4,357.1,270.2,357,269.7z M388,270.5c0-0.2-0.1-0.4-0.4-0.3l-1.8,0.2l0-0.4h0.2l4.2-0.4l0,0.4
		C389,270,388.3,270.2,388,270.5z M386,269.6c0.2,0.1,0.1,0.2,0,0.2C385.9,269.8,385.8,269.7,386,269.6z M386.2,264.8l-2.3,0.2
		l0-0.4l2.1-0.2l1.8-0.5c0,0.2,0.1,0.3,0.4,0.3c2.2-0.4,2-0.5,3-0.6c0.4,0,0.6,0.2,0.6,0.6L386.2,264.8z M394.3,264.1
		c-1.3-0.1-1.4-0.2-2.3-0.2l0-0.3l2.1-0.2l0,0.3C393.9,263.7,394.7,263.8,394.3,264.1z M394.5,263.7l0-0.3l1.1-0.1l0,0.3
		L394.5,263.7z M397,263.5l0-0.3c0.2,0,0.5-0.2,0.8-0.4c0.6-0.1,0.9,0.3,0.9,0.8L397,263.5z M400.2,263.1l0-0.3l1.4-0.1l0,0.4
		L400.2,263.1z M402.1,262.9c0-0.4,0.1-0.6,0.5-0.7l0.5,0.6c0-0.2,0.1-0.3,0.2-0.3l0.4,0.6L402.1,262.9z M381.7,271.7l-0.1-0.7
		l-0.2,0l0.1,0.7L381.7,271.7z M429.1,259.4c0.2-0.1,0.3-0.3-0.2-0.4c-0.2,0.3,0.3,0.4-0.3,0.4l0,0.2c0.1-0.1,0.2-0.1,0.3-0.2
		l-0.3,0.2v0l-0.6,0.7l1.1-0.4h0.1l-0.1-0.7L429.1,259.4z M431.1,261l-0.2,0l0.1,0.7l1.6-0.1C432.5,261.1,431.4,261,431.1,261z
		 M428.6,259.8L428.6,259.8L428.6,259.8L428.6,259.8z"/>
	<path id="XMLID_99_" class="st0" d="M325.1,209.9l0,0.4l0.9-0.1c0-0.3,0.1-0.7,0.3-1.2l-0.1-0.8
		C325.9,208.2,325.5,208.8,325.1,209.9z M316.6,189.4l-0.1-0.8l-1.3,0.1l0.1,0.8L316.6,189.4z M291.9,235.7
		c-0.1-0.7-2.3-3.6-6.8-8.5c-0.1-0.9,1.5-2.3,4.6-4.1l9-7.8c2-2.6,3.2-6.7,3.6-12.5l-0.1-1.3c-0.4-4-3.2-7.2-8.7-9.7
		c-3.2-2.2-9.1-3.4-17.5-3.6c-7,0.6-16,3.1-27.2,7.5c-3.1,2.2-6.6,4.4-10.5,6.6l0.1,0.7c0.2,0,0.6-0.2,1.1-0.5
		c0.5-0.1,0.7,0.2,0.8,0.6l0.7-0.4l0.3,0l0,0.3c0,0.4-2.4,2.3-7.3,5.7l0.4,0.7l-0.3,0l-0.8-0.3c0,0.2-0.3,0.4-1,0.5l0,0.3l0.8,1
		c-0.2,0-0.6-0.1-1.1-0.3c-1.1,0.1-2.2,0.7-3.3,1.8l0.5-2c1.6-7.1,2.8-13.4,3.4-18.8l-0.1-0.4c-1.1-0.7-2.2-1.8-3.3-3
		c0-0.8,0-1.3,0-1.4l-0.1-0.3l-0.3,0.1c-3.6,5.3-10.4,14.4-20.6,27.3c-7.7,9.2-11.7,14.3-12,15.3c-3.2,3.3-4.7,5.2-4.5,5.9
		c-0.8,0.5-1.2,1.1-1.1,1.7c-0.2,0.1-0.4,0-0.5-0.3c-1.3,2.2-3.3,3.6-6,4.2l-2.8,0.6c-0.4,0.1-0.6,0.4-0.5,0.8l0.1,0.4l1.1-0.2
		l0.1,0.3l-2.4,0.9l-4.2,1l-2.2,0.1c-0.3,0.3,1.8,0,0.9,0.2l-2.7,0.6c-1.7,0.4-2.6,0.2-2.7-0.4l-0.3,0.1c0.1,0.3,0.1,0.5,0,0.7
		L168,245l-2.2,0.5c-0.2-1-3.2-4.7-8.9-11.2c-0.1-1.2,1.9-3,6.1-5.4l11.8-10.4c2.6-3.4,4.2-8.8,4.7-16.3l-0.2-1.8
		c-0.5-5.3-4.3-9.5-11.5-12.8c-4.3-2.9-11.9-4.4-23-4.7c-9.2,0.8-21.1,4-35.9,9.7c-4,2.9-8.7,5.8-13.8,8.7l0.1,0.9
		c0.4,0,0.8-0.2,1.4-0.5c0.6-0.1,0.9,0.2,1,0.8l0.9-0.5l0.5,0l0,0.4c0,0.4-3.2,2.9-9.7,7.5l0.5,0.8l-0.5,0l-1-0.4
		c0,0.3-0.4,0.5-1.4,0.5l0.1,0.5l1.1,1.2c-0.4,0-0.8-0.1-1.5-0.3c-2.1,0.2-4.2,1.7-6.2,4.6l0.5,0.8c1.8-1.6,2.8-2.4,3.1-2.5l0.1,1.3
		c-0.3,0-0.8,0.2-1.4,0.5l1.1,1.7c2.1-2.3,4.5-4.3,7-5.9c1.3,0.3,1.9,0.7,2,1.2l1-0.1c7-5.1,13.8-8.9,20.6-11.2l0.1,0.9
		c-1.3,1.9-2.1,2.9-2.6,2.9c0.1,0.6,0.3,1.2,0.7,1.7c0.1,1.2-3,9-9.3,23.4c-14.3,33.6-26.2,58.4-36,74.5c0,0.3,0.2,0.8,0.6,1.3
		c2.4-0.6,3.9-1.2,4.6-1.7l0.5-0.1l0.1,0.9l0.9-0.1l0.9-0.5c0,0.3,0.3,0.4,0.9,0.4l0.1,0.9c0.1,0.9-0.4,2.2-1.5,4.1
		c-1,1.1-2,3.4-3.1,7l0,0.4l0.9-0.1c3.9-4.3,6.8-8.6,8.8-12.8c11.3-3.3,19.9-6.6,25.9-9.8c6-0.5,10.6-2.1,13.7-4.7l-0.1-0.5
		l-2.3,0.7l-0.5,0.1l-0.1-0.5c4.4-0.7,7.5-1.6,9.2-3c8.6-6.6,15.1-11.3,19.5-14.1c9-6.6,14.9-13.1,17.6-19.4c0.5-0.1,1-0.2,1.5-0.4
		c1.3-0.1,2-0.1,2.2-0.1c-0.1-0.2,0.1-0.4,0.3-0.4c2-0.2,1.1,0.1,2.3-0.2l3.4-0.8l0.6-0.1l-0.3,0.2c0.4,0.1,0.8,0,1.2-0.1l0.2,1
		l-15.4,24.6l-3.4,4.3l-1.7,5.6l0.3-0.1l1.7-0.7l-0.5,2.2l0.2,0.6l0.5,0.6c-0.2,0.1-0.3,0.2-0.2,0.4l0.1,0.4l0.7-0.2
		c1-0.9,1.5-1.7,1.3-2.4c1.1,0.2,1.8,0.3,2.2,0.2l0.1,0.4c-0.7,0.2-1,0.7-1.1,1.6l0.1,0.4l0.4-0.1c5.6-6.1,19.4-27.1,30.4-41.3
		c-0.4-1.5,5.4-3.7,17.3-6.4l0.4-0.1c0.4,1.9-0.5,6.4-2.7,13.5c-1.5,4.3-2.2,6.7-2,7.1c-1.9,5.7-2.8,8.8-2.7,9.3l-4.2,13.8
		c-2.7,7.1-4.8,14.5-6.3,22.3c0.2-0.1,0.6,0,1.2,0.1l0.6-0.5c0.1,0.2,0.2,0.3,0.5,0.3l-0.2-1l1.8-0.1c0.5-0.1,1-0.8,1.4-2
		c-0.1-1.9,0.3-2.9,1.1-3.1c1.1-4.4,1.8-6.6,2.1-6.7c1.1-4.4,1.8-6.9,2.3-7.5c1.6-5.7,2.7-8.7,3.5-8.8l0.2,0.7l-1.2,3
		c-2,9-4.1,16.1-6.1,21.3l0.6,2.6l0.4-0.1c5-10.8,12.2-32.1,21.6-64.1c0.3-2.8,1.6-5,4-6.5l-0.5-0.6l-0.1-0.3
		c1.1-0.2,1.8-0.7,2.3-1.3c-0.1-0.2-1-0.6-2.8-1.1L228,214c1-0.9,1.6-1.4,1.8-1.4l0.1,1c-0.2,0-0.6,0.2-1.1,0.5l0.9,1.3
		c1.6-1.8,3.4-3.3,5.3-4.5c1,0.3,1.5,0.6,1.5,0.9l0.7-0.1c5.3-3.9,10.6-6.7,15.7-8.4l0.1,0.7c-0.9,1.4-1.6,2.2-1.9,2.2
		c0.1,0.5,0.2,0.9,0.4,1.3c0.1,0.9-2.2,6.8-7,17.8c-10.8,25.5-19.9,44.3-27.3,56.6c0,0.2,0.2,0.6,0.5,1c1.8-0.4,3-0.9,3.4-1.3l0.3,0
		l0.1,0.7l0.8-0.1l0.7-0.4c0,0.2,0.3,0.3,0.7,0.2l0.1,0.7c0.1,0.6-0.3,1.7-1.2,3.1c-0.8,0.8-1.6,2.6-2.5,5.3l0,0.4l0.7-0.1
		c2.9-3.3,5.2-6.5,6.7-9.7c8.6-2.5,15.2-5,19.7-7.4c4.6-0.4,8.1-1.6,10.5-3.6l0-0.4l-1.8,0.5l-0.4,0l0-0.4c3.3-0.5,5.7-1.2,7-2.2
		c6.5-5,11.5-8.6,14.8-10.7C287.6,249.9,292.5,242.7,291.9,235.7z M290.1,236.1l0.2,2.7c-0.3,0.7-0.7,1-1,1.1l-0.4-4.6
		C289.7,235.5,290.1,235.8,290.1,236.1z M86,214.2l-0.5,0l-0.1-0.8l1.9-0.2l0,0.4C87,213.7,86.6,213.8,86,214.2z M76.9,305.1
		c-1.1-0.5-2-0.7-2.9-0.6l-0.1-1.3c-0.1-0.5,0.2-0.9,0.9-1c0.6-0.1,0.9,0.4,1,1.2c1.6-1.9,2.4-2.9,2.6-2.9l1,0.4
		C79.1,303.6,78.2,305,76.9,305.1z M174,203.5c-0.5,0.1-1.4-1.4-2.7-4.2l-0.1-0.8c0.9-0.1,1.8,1.3,2.7,4.2L174,203.5z M172.7,193.5
		l-0.4,0.9l-13.2-5.5C167.9,189.1,172.4,190.7,172.7,193.5z M117,241.3l-1.9,0.2l-0.1-0.8l1.9-0.2L117,241.3z M115.5,212.5l0.5,0
		l0.1,1.3c-0.4,0-1,0.7-1.7,1.9l-0.1-0.9C115.1,213.8,115.6,213.1,115.5,212.5z M111.6,221.8l0.2,1.8l-0.5,0l-0.2-1.8L111.6,221.8z
		 M109.6,225.1l0.9-0.1c-0.1,1.5-0.5,2.2-1.2,2.3l-0.5,0C109.3,226.3,109.6,225.6,109.6,225.1z M108,229.6l0.5-0.1l0,0.4l-0.8,1.4
		l-0.9,0.1l0-0.4C107.7,231,108.1,230.5,108,229.6z M106.5,233.8l-0.3,2.2l-0.5,0l-0.2-2.2L106.5,233.8z M91.4,276.8
		c-0.6,3-1.2,4.6-1.9,4.6l0-0.4C89.3,279.5,89.9,278,91.4,276.8z M88.6,282.8l0,0.4c0.1,0.6-0.2,0.9-0.8,1l0-0.4
		C87.7,283.2,88,282.9,88.6,282.8z M87.8,295.2l1.4-0.1l0.1,0.5c-0.4,0-0.8,0.2-1.4,0.5l-0.9,0.1C86.9,295.8,87.2,295.4,87.8,295.2z
		 M127.7,282.9c-7.9,3.9-12.5,6.5-13.9,7.9c-8.5,3-12.8,4.8-12.7,5.5c-7.6,3-12.6,5.2-15,6.6c-0.6,0.1-1.4-0.2-2.5-0.6
		c-0.1-1.5,0.6-2.8,2-3.8c1.3-0.1,2.6,0.1,3.8,0.6c1.4-0.7,3.9-1.5,7.3-2.4l-0.1-0.9L94,296c0.4-0.5,3-1.8,8.1-3.8l1.4-0.1l0,0.4
		c-2.4,0.2-3.7,0.9-4,2.2c0.1,0.6,0.4,0.8,1,0.8c1.8-1.1,2.7-1.8,2.7-2c3.4-0.6,12.9-5.6,28.4-14.9l0.1,0.8
		C131.7,279.9,130.4,281,127.7,282.9z M103.9,290.7c2.3-0.2,4.2-1.1,5.8-2.7c0.6-0.1,1,0.2,1,0.8c-1.1,0.1-3.2,1-6.3,2.8l-0.5,0
		L103.9,290.7z M142.3,261.3l-11.9,9.4c-8.8,5.8-13.6,8.7-14.3,8.8c-14.1,7.7-22.8,11.8-26.2,12.1l-0.5,0.1
		c0.4-1.6,6.7-14.4,18.8-38.5c5.3-0.5,13.7-2.9,25.2-7.5l2.8-0.2c5.8-0.5,10.1,0.6,13,3.3l0.2,1.8
		C147.2,256.6,144.8,260.2,142.3,261.3z M119,248.2l1.9-0.2l0,0.4l-1.9,0.2L119,248.2z M145.9,243.7l1.4-0.1c1.3,0.6,2,1.2,2,1.6
		l0,0.4C148.1,245.7,147,245.1,145.9,243.7z M149.7,222c-1.2,1.5-4.6,4-10.2,7.6c-1.8,0.2-8.7,2.8-20.5,8c-0.6-0.3-1.2-0.4-1.9-0.3
		l-0.1-0.8c-0.1-1.7,0.6-3.8,2.3-6.4c0.9-4.9,1.9-7.6,3-8.3l9.8-22.1c-0.1-1.4,2-2.4,6.3-3.2l1.4-0.1l0.1,1.3c4.2-0.6,6.9-1,7.9-1.1
		c7.8-0.7,11.9,0.9,12.2,4.7l0.9-0.1l-0.2-2.2l1-0.1c2.3,1.3,3.5,2.8,3.7,4.6c0.1,1.2-0.6,2.8-2,4.6c-0.6,0.1-0.9-0.4-1-1.2l-1,0.1
		l-0.2,2.7c-4,5.9-6.8,9-8.6,9.1C151.1,220.9,150.1,222,149.7,222z M155.8,237.5c-0.8-0.5-1.5-0.8-1.9-0.8l-0.1-1.3l0.9-0.1l2,1.2
		C156.6,237.1,156.4,237.5,155.8,237.5z M162,244.9c0.9,0.4,1.4,0.7,1.5,1.1l-0.4,0.1l0,0c-0.1,0-0.2,0-0.3,0.1l-0.6,0.5L162,244.9z
		 M162.6,248.6l-0.1-0.4l1.1-0.3l0.1,0.4L162.6,248.6z M165.3,251.7c1.2-0.2,1.7-0.3,3.9-0.8l0.1,0.4l-4.1,0.9
		C165.2,252,165.3,251.8,165.3,251.7z M169.3,253.4c-1.7,0.2-1.3-0.1-4.1,0.6l-0.1-0.4l3.5-1.1l1.6-0.4l0.2,0.6
		C169.6,252.9,170.2,252.9,169.3,253.4z M173,252.5c-0.4,0.1-0.7-0.1-0.9-0.5l1.1-0.2c0.5-0.1,0.8,0.1,0.9,0.5L173,252.5z
		 M182.8,241.9l-0.1-0.4l1.7-0.4l0.2,0.6L182.8,241.9z M193.4,306.5c0.1-0.5,0.1-0.8,0.1-1.1l0.4-0.1c0.5-0.1,0.7,0.1,0.8,0.5
		l0.1,0.4L193.4,306.5z M200.7,244.7l-0.8-0.1c-1.2,0.5-2.2,0.8-3.1,1l-0.7,0.2c-0.4,0.1-0.7-0.1-0.9-0.5l4.9-1.1l1.6-0.8l0.5,0.6
		C201.6,244.1,201.1,244.4,200.7,244.7z M204.6,243.5l-0.1-0.4c0.2-0.1,0.6-0.2,0.9-0.6l3.5-0.8l0.1,0.4
		C207.1,242.5,205.6,243,204.6,243.5z M205.1,236.4c-0.2,0.1-0.6,0.3-1,0.6c-0.1-0.2-0.5-0.2-1.5,0c-0.2-0.7,2.4-1.6,7.8-2.9
		l0.8-0.2l0.2,0.6C207.6,235.7,205.5,236.3,205.1,236.4z M214.5,226.2c-0.4,4.3-1.9,6.7-4.6,7.3l-0.1-0.4l-2.4,0.9l-1.1,0.2
		c-0.5,0.1-1,0.1-1.5,0l-0.2-0.9c-0.1-0.4,3.3-5.1,10.3-14.2l0.8,0.1C216.2,220.5,215.7,222.8,214.5,226.2z M231.2,211.9l-0.3,0
		l-0.1-0.7l1.4-0.1l0,0.3C232,211.5,231.7,211.7,231.2,211.9z M224.3,280.9c-0.8-0.4-1.5-0.5-2.2-0.5l-0.1-1c0-0.4,0.2-0.6,0.6-0.7
		c0.5-0.1,0.7,0.3,0.8,1c1.2-1.5,1.8-2.2,1.9-2.2l0.7,0.3C225.9,279.8,225.3,280.9,224.3,280.9z M298,203.8c-0.4,0-1-1.1-2.1-3.2
		l-0.1-0.7c0.7-0.1,1.4,1,2.1,3.2L298,203.8z M297.1,196.1l-0.3,0.7l-10-4.2C293.4,192.9,296.9,194,297.1,196.1z M254.8,232.4
		l-1.4,0.1l-0.1-0.7l1.4-0.1L254.8,232.4z M253.6,210.6l0.4,0l0.1,1c-0.4,0-0.8,0.5-1.3,1.5l-0.1-0.7
		C253.3,211.6,253.6,211,253.6,210.6z M250.7,217.6l0.1,1.3l-0.4,0l-0.1-1.3L250.7,217.6z M249.1,220.1l0.7-0.1
		c-0.1,1.1-0.4,1.7-0.9,1.8l-0.4,0C248.9,221.1,249.1,220.5,249.1,220.1z M248,223.6l0.3,0l0,0.4l-0.6,1.1l-0.7,0.1l0-0.4
		C247.7,224.6,248,224.3,248,223.6z M246.8,226.7l-0.2,1.7l-0.3,0l-0.1-1.7L246.8,226.7z M235.3,259.4c-0.5,2.3-0.9,3.4-1.5,3.5
		l0-0.3C233.7,261.5,234.2,260.4,235.3,259.4z M233.2,264l0,0.3c0.1,0.5-0.2,0.8-0.6,0.8l0-0.4C232.5,264.4,232.7,264.1,233.2,264z
		 M232.6,273.5l1.1-0.1l0,0.3c-0.2,0-0.6,0.2-1.1,0.4l-0.7,0.1C231.9,273.8,232.1,273.6,232.6,273.5z M262.9,264.1
		c-5.9,2.9-9.5,4.9-10.6,6c-6.5,2.3-9.7,3.7-9.6,4.2c-5.7,2.3-9.5,3.9-11.3,5c-0.4,0-1.1-0.1-1.9-0.5c-0.1-1.2,0.4-2.1,1.6-2.8
		c1-0.1,2,0.1,2.9,0.4c1.1-0.5,2.9-1.1,5.6-1.8l-0.1-0.7l-2.2,0.2c0.3-0.4,2.3-1.3,6.2-2.9l1.1-0.1l0,0.3c-1.8,0.2-2.9,0.7-3.1,1.7
		c0,0.4,0.3,0.6,0.8,0.6c1.3-0.9,2-1.4,2-1.6c2.6-0.5,9.8-4.2,21.5-11.3l0.1,0.7C265.9,261.8,264.9,262.6,262.9,264.1z M244.8,270
		c1.8-0.2,3.2-0.8,4.5-2c0.5,0,0.7,0.2,0.8,0.6c-0.8,0.1-2.4,0.8-4.8,2l-0.4,0L244.8,270z M274,247.6l-9,7.2
		c-6.7,4.4-10.4,6.6-10.9,6.7c-10.7,5.9-17.3,8.9-19.9,9.1l-0.4,0c0.3-1.2,5.1-10.9,14.3-29.2c4-0.4,10.4-2.3,19.1-5.7l2.2-0.2
		c4.4-0.4,7.7,0.5,9.8,2.6l0.1,1.3C277.7,244.1,275.9,246.8,274,247.6z M256.3,237.7l1.4-0.1l0,0.4l-1.4,0.1L256.3,237.7z
		 M276.7,234.2l1.1-0.1c1,0.5,1.5,0.9,1.5,1.3l0,0.3C278.4,235.8,277.6,235.3,276.7,234.2z M279.6,217.8c-0.9,1.1-3.5,3.1-7.7,5.8
		c-1.4,0.1-6.6,2.1-15.5,6c-0.4-0.2-0.9-0.2-1.4-0.2l-0.1-0.7c-0.1-1.3,0.5-2.9,1.7-4.9c0.7-3.7,1.5-5.8,2.3-6.3l7.5-16.8
		c-0.1-1,1.5-1.8,4.7-2.4l1.1-0.1l0.1,1c3.2-0.5,5.2-0.8,6-0.9c5.9-0.5,9,0.7,9.3,3.6l0.7-0.1l-0.1-1.6l0.7-0.1
		c1.7,0.9,2.6,2.1,2.7,3.4c0.1,1-0.4,2.2-1.4,3.5c-0.5,0.1-0.7-0.3-0.8-1l-0.7,0.1l-0.2,2c-3,4.6-5.2,6.9-6.6,7
		C280.7,217,279.9,217.8,279.6,217.8z M282.7,229l-0.1-1l0.7-0.1l1.5,0.9c0,0.4-0.2,0.7-0.6,0.7C283.6,229.2,283.1,229,282.7,229z
		 M157.2,294.5l-0.7,0.2l-0.6,0.5c0.1,0.4,0.4,0.6,0.8,0.5c0.5-0.1,0.6-0.4,0.5-0.8L157.2,294.5z M154.6,289.2l0.1,0.3
		c0.5-0.1,0.6-0.4,0.5-0.8l-0.1-0.4C154.7,288.5,154.5,288.8,154.6,289.2z M173.7,253.4l0.5-0.3c-0.1,0-0.2,0-0.3-0.1
		C173.7,253,173.6,253.2,173.7,253.4z M173.5,244.1l0.8-0.2l-0.2-0.7l-0.8,0.2L173.5,244.1z M364.1,271.3l-1.8-0.2l-0.3,0.7l0,0.4
		l10.9-0.9l-0.1-0.7L364.1,271.3z M374,270.4l0.1,0.7h0.1l-0.1-0.7H374z M419.8,264.5l0.1,0.7l1.2,0.2l-0.1-0.7L419.8,264.5z
		 M418.2,264.6c-8.2,1.8-9.2,1.5-10.9,1.6l0.1,0.7l0.8-0.1l0.4,0l-0.1-0.1l0.9-0.4c8.1-0.9,9.1-0.6,9-1.5L418.2,264.6z M369,252.7
		l-0.7-0.2c-0.6,1.6-0.9,2.5-0.9,2.8l0,0.3C368,255.5,368.5,254.5,369,252.7z M359.1,247.4l0-0.4l-0.4,0l-0.7,0.4l0.4,0.6
		C358.9,248.1,359.1,247.8,359.1,247.4z M380.5,269.5l-0.1-0.7l-0.2,0l0.1,0.7L380.5,269.5z M425,259.5l0.5-0.1
		c0.3,0,0.4-0.3,0.4-0.7l-0.3-0.6c-1.9,0.2-2.7,0.2-4.2,1.1l0-0.4l-2.2,0.2c-0.1-0.7-0.2-1-0.5-1l-1.2,0.1c-1.3,0.1-2,0.1-2.7,0.6
		c0-0.2-0.1-0.4-0.2-0.4l-1.3,0.1l-0.8,0.4c0-0.2-0.1-0.4-0.2-0.4l-0.5,0.4l0-0.4l-1.8-0.1l-0.4,0l0.1,0.7l0.9,0.2l0.9-0.1
		c0.3,0.2,0.6,0.2,1,0.2l0.8-0.4l0,0.3c-4.2,1.1-4.2,0.9-7.1,1.3c-0.3-0.2-0.6-0.3-0.7-0.3l-0.1,0.1c-0.3,0-0.5-0.2-0.5-0.6l1.5-0.2
		c0.1,0,0.2,0.1,1,0.3c1.2-0.6,1.3-0.8,1.9-0.9l-0.1-0.7c-4.2,0.8-2.5,0.3-7.7,0.7l-0.2,0l-0.1-0.7c6.7-0.8,4.4-0.4,6.7-1
		c0,0.2,0.1,0.4,0.2,0.4c0.3-0.3,0.6-0.4,0.9-0.5l0.5,0c2.3-0.2,3.1,0.3,7.8-1l0,0.3l0.8-0.4l0.7-0.1c-0.1-0.7,1-0.8,1.3-0.8
		l-0.1-0.7c-8.1,1.6-10.3,1.2-12.5,1.8l0-0.3c-2.1,0.4-2.2,0.2-2.7,0.2c-0.2,0-0.4,0.2-0.7,0.4c0-0.2-0.1-0.4-0.3-0.4
		c-0.1,0-0.1,0-0.1,0l-6.9,1.1c0-0.2-0.1-0.3-0.3-0.3c-3.6,0.8-2.6,0.9-7.4,1.3c-0.2,0-0.5,0.1-0.9,0.4c0-0.2-0.1-0.3-0.4-0.3
		l-2.9,0.2l-2,0.5c0-0.2-0.1-0.3-0.4-0.3c-1.1,0.3-2.1,0.5-2.9,0.5h-0.1c-0.5,0.1,0.2-0.1-0.1-0.3l-0.6,0.4c-0.9,0.1-0.4-0.1-3.4,0
		c-5.2,0.6-4.6,0.7-5.2,0.8l-1.9-0.1c0,0.2-0.1,0.3-0.3,0.3c-2.2-0.3-3.3-0.6-3.4-1.1c0.3-2.1,0.8-3.2,1.5-3.2l0.4,0l-0.3,0.7l0.4,0
		c0.7-0.4,1-0.7,1-1.1l-0.1-0.7l-0.7,0.1l-0.1-0.7c-0.1-0.5,0-1,0.2-1.3l1.6-2.6l0.1,0.7l0.8-0.1l-0.1-0.7l-0.4-0.6
		c0.6-0.5,1-0.8,1.3-0.8l0-0.3l-1,0.1l-0.1-1c2-4.3,3-6.7,3-7.4l0.7,0.3c0.5,0,0.7-0.3,0.6-0.8l-0.7,0.1l0-0.3
		c-0.1-0.5,0.1-1,0.3-1.4c1.1-1.2,1.6-2.3,1.5-3.5c0.2,0,0.3,0.1,0.4,0.3c0.9-0.5,1.7-2,2.2-4.3c1.7-3,4-9.1,7.1-18.1
		c5.9-16,5.7-17.7,6.5-21.4l-0.7,0.1c0.1,0.5-0.1,0.9-0.3,1.4c-0.5-0.2-0.9-0.3-1.1-0.3l0-0.3c-0.1-1.4,0.5-3,1.8-5l0.3,0l0.6,2.3
		l0.7-0.1c0-0.2,0.2-1.1,0.5-2.8c0-0.4-0.3-0.6-0.8-0.6l-0.7,0.4c-0.1-0.5,0-1.8,0.1-3.8l-0.4,0c-0.6-0.6-0.9-1.1-0.9-1.5l-3.9,0.4
		c0-0.3-0.2-0.7-0.4-1.2c0-0.4,0.8-0.7,2.6-1.1l0.8,0.3l0.7-0.4c0,0.2,0.2,0.4,0.4,0.3l0.7-0.4c0,0.2,0.2,0.4,0.4,0.3l0.4,0
		l-0.1-0.8c-0.5,0.1-2,0.1-4.2,0l-0.7,0.5l0-0.4c-18.1,1.5-28.4,2.3-30.8,2.6c-0.3,0-1.6,0-3.8-0.1c0,0.3-0.2,0.5-0.8,0.5l-0.8-0.4
		l-2.6,0.7c-0.6,0.1-1.7,0-3.1-0.1c-0.4,0.3-0.9,0.5-1.5,0.6c-0.3,0,3.9-0.2,7.7-0.5c-0.4,0.3-1,0.5-1.9,0.6c-0.6,0.1-1.1,0-1.5-0.3
		c-0.6,0.3-2.5,0.7-5.7,1.3l-0.8-0.3l-12.6,1.9c-0.5-0.2-1.1-0.3-1.7-0.3c-0.7,0.1-1.8,0.3-3.4,0.7l-6.1,2.5l0.5,0.8
		c0.3,0,0.7-0.2,1.2-0.5l2.2,0.2l-0.3,2c-2,0.9-3.2,2.2-3.5,3.9c-3,1.3-4.5,2.3-4.5,2.8l0,0.4l0.5,0l0.8-0.4l0.9,1.1l0.1,1.6
		c0.1,0.5-5,11.1-15.1,31.8c-8.7,19.9-13.3,30.9-13.7,32.8c-3,0.8-4.7,2-5.2,3.7c0.1,0.5,0.9,0.9,2.7,1l0.1,0.8l-0.8,1.3l0.1,1.6
		c0.1,0.8,2.3,1.4,6.6,1.9c0-0.3,0.1-0.4,0.4-0.5c0.1,1-0.2,2.9-0.8,5.7l0.5,0c1.8-2.4,2.6-4.1,2.5-5l0.4,0c0.4,0,0.9,0.5,1.4,1.5
		c-0.5,0.2-2.4,4.5-5.7,12.9l0.5,0.8l0.5,0c4-10,6.4-15.6,7.5-16.6c5.2-0.5,14.2-1.4,27-2.7l0.8-0.5c0,0.3,0.2,0.4,0.5,0.4l0.8-0.1
		l0.8-0.5c0,0.3,0.2,0.4,0.5,0.4l9.7-0.8c2.6-0.2,3.8-1,3.7-2.3c0-0.4,1.5-0.8,4.5-1.2c0.3,0,0.7,0.1,1.3,0.2c0-0.2,1.5-0.5,4.6-0.8
		c0.1-1.6,0.6-2.5,1.5-2.6l-0.1-0.8c-0.9,0.1-1.8,0.3-3,0.7c-2-0.1-3.3-0.3-3.9-0.5c-0.5,0.3-0.9,0.5-1.2,0.5l-6.7,0.2l-0.8,0.4
		c0-0.2-0.2-0.4-0.5-0.3l-0.4,0l-0.9,0.4c0-0.2-0.7-0.4-2.1-0.6l-0.9,0.5l-1.7,0.1l0-0.4c8.7-0.9,13-2.1,12.9-3.5
		c0.6-0.1,0.9,0.2,0.9,0.8l2.5-0.6l-0.1-0.8l-20.8,0.6c0,0.3-0.1,0.4-0.4,0.5l-2.5-0.2c-0.6,0.1-1.2,0.2-1.6,0.6l-0.9-0.4
		c-2.6,0.2-4.6,0.5-5.9,0.9c-1.8-0.1-3.7-0.1-5.9,0.1l-4.7,0.4l-2.2-0.2c-0.1-1.4,2.6-8.1,8.1-20.3c1.6-4.1,3-6.7,4.4-7.6
		c0.3,0,0.7,0.1,1.3,0.3l3.3-1.1l1.7,0.3c2.9-0.2,6.2-1.1,10-2.5c0.9-0.1,1.6,0,2.2,0.2l2.5-0.6l7.5-0.6c3.2-0.3,6.7-1,10.5-2.1
		l-0.1-0.8c-1.4,0.1-2.1-0.1-2.2-0.7c-0.1-1.1-1.1-1.5-3.1-1.3l-0.1-0.8l2.1-0.6l5.4-0.5l-0.1-0.8c-0.2,0-1.3,0-3.4-0.1l-0.1-0.8
		l2.1-0.2c0.6-0.1,0.8-0.3,0.8-0.9c-2.8,0.1-4.3-0.1-4.3-0.4c-19.7,1-29.6,1.2-29.7,0.5c-0.3,0-0.7,0.2-1.2,0.5L319,220
		c5.2-11.1,8.3-16.7,9.2-16.8c0,0.4-0.2,1.1-0.6,2.1l0,0.4l0.8-0.1c2.1-5,3.8-7.5,5.3-7.6c6.2-0.5-0.9-0.9,12.4-3
		c0.5,0.2,0.9,0.4,1.2,0.3c5.2-1.1,12.5-2.2,21.8-3.3l-0.1-0.8l-5,0.5l-0.1-0.8c0.6-0.1,1.1-0.2,1.5-0.6l0,0.4
		c0.3,0,0.6-0.2,1.1-0.5c0.9-0.1,1.5,0,2,0.2c1.7-0.5,3.1-0.7,4.2-0.8l3.1-0.3c0.8-0.5,1.1-0.9,1.1-1.3l0-0.4
		c-0.8,0.1-1.7,0-2.7-0.2c0-0.4,0.2-0.7,0.7-0.9l5.8-0.5l2.6-0.7c0,0.3,0.2,0.4,0.4,0.4c0.3,0,0.6-0.2,1.1-0.5c0.1,0,0.3,0,0.4,0.1
		c-0.4,0.7-0.8,1.8-1.2,3.2l-0.8,0.1c-0.1-0.5-0.2-1-0.4-1.4l-0.4,0c-7,19.5-10.1,28.6-16.6,43.6c-1.2,3.8-2.2,6-3,6.4
		c0,0.4,0.3,0.6,0.8,0.6c0.2,1.9-0.3,3.7-1.3,5.6c-3,8.6-5,13.3-6,14.2l0.7,4.1c0,0.4-0.2,0.7-0.6,0.7l-0.7,0.1
		c-0.1-1.1-0.5-1.7-1.2-1.6l-0.4,0c-0.9,1.4-1.6,3.1-2.1,5l0.7-0.1c0.9-0.6,1.4-1.3,1.3-2.2l1.4-0.1l0.8,0.3c-0.6,1-0.9,1.8-0.9,2.5
		l0.4,0.6l-0.9,2.2l0,0.4c0.8-0.1,1.7,0.2,2.6,0.8c0.6-0.1,1.3-0.4,2.1-0.9c0.8-0.1,3.8-0.1,9-0.1l2.6-0.9c3.2,0,3.7,0.1,6.4-0.2
		l1.1-0.1l0.6-0.4l0,0.4c2.9-0.2,3.1-0.1,5.3,0.2l0,0.4l-1.6,0.1l0.1,0.7c0.5-0.1,0.9-0.2,1.3-0.5c0.4,0,0.6,0.2,0.7,0.7
		c-0.6,0.1-1.4,0.2-2.2,0.5l-0.7-0.2c-1.1,0.3-0.9,0.4-1.6,0.4l-1.1-0.2c0,0.2-0.1,0.3-0.3,0.3c0,0.4,0.3,0.6,0.7,0.6l1.1-0.1
		l5.9-0.5l2.2-0.5c0,0.2,0.1,0.3,0.3,0.3l1.1-0.4l2-0.2c1.6-0.1,1.5-0.2,4.9-0.8c0-0.2,0.1-0.3,0.2-0.3l0,0.3c5.5-0.9,5.9-1,6.8-1.3
		l0.1,0.2c1.4-0.3,0.6-0.2,1-0.5c0,0.2,0.1,0.4,0.2,0.4l1-0.1l-0.1-0.7l-2,0l0-0.1c-0.1,0-0.1,0-0.2,0.1h-0.3v0.1
		c-1.3,0.3-1.3,0.1-2.2,0.2l-4.9,0.3l0-0.4l2.7-0.4l1-0.1l0.6-0.4l0,0.4c3.9-0.3,5.3,0.6,23.2-3.2c1-0.1,0.9-0.9,1.5-2.6
		c-0.3,0-0.6-0.1-0.9-0.2c-1.5,0.6-2.3,0.3-5.1,0.8c-0.2,0-0.4-0.2-0.5-0.6l0-0.3l2.7,0.1c0.5-0.1,1.5-0.1,3-1
		C425.2,259.4,424.7,259.5,425,259.5L425,259.5z M292.3,261.6l-1.3,0.1c-0.1-0.5,0.6-2.5,2-5.8l0.8-0.1
		C293.9,256.7,293.4,258.6,292.3,261.6z M293.8,255.5l0-0.4c0-0.4,0.2-0.7,0.8-0.9l0,0.3C294.7,255.1,294.4,255.4,293.8,255.5z
		 M310.7,268.5l0,0.4l-2.1,0.2l0-0.4L310.7,268.5z M308.1,268.3c0,0.4-0.6,0.9-2,1.4l-2.6-0.2l-0.8,0.1l-0.1-0.8L308.1,268.3z
		 M325.2,189.9l-1.3,0.1l0-0.4c0-0.4,0.2-0.7,0.8-0.9l0.5,0l0.9,0.4C326,189.5,325.7,189.8,325.2,189.9z M344.4,186.1l0.4,0l0.1,0.8
		l-1.2,0.1C343.7,186.5,343.9,186.2,344.4,186.1z M339.6,187.8l-1.9-0.2l0-0.4c2.5-0.2,3.3-0.5,4.9-0.9c0,0.3,0.3,0.4,0.8,0.4
		l0.1,0.8l-0.8,0.1c-0.6,0.1-1.1,0-1.5-0.3C340.6,187.6,340.1,187.7,339.6,187.8z M342,194.8l0-0.4l3.1-0.3l0,0.4L342,194.8z
		 M345.3,192.1l0-0.4l1.5-0.1l0,0.4L345.3,192.1z M345.6,186.8l-0.4,0l0.4-0.8l3.5-0.3l0,0.4C348.2,186.2,347,186.4,345.6,186.8z
		 M347.4,194.2l-0.1-0.8l1.5-0.1c0.5-0.1,0.8,0.2,0.8,0.7L347.4,194.2z M356.5,181.8l-1.9,0.5l-0.4,0c-0.9,0.1-2.1,0.1-3.5-0.1
		C353.2,182.1,355.6,181.9,356.5,181.8z M354.5,190.4l0,0.4l-2.7,0.2l0-0.4L354.5,190.4z M358.8,192.5c0-0.3-0.5-0.5-1.6-0.6
		l-2.7,0.8l-2,0.1c-0.5-0.3-0.7-0.5-0.7-0.7l2.4,0.1l5.3-0.9l2.7,0.1l0,0.4C360.9,191.9,359.8,192.2,358.8,192.5z M386.3,185.4
		c0.3,0,0.5,0,0.6,0c0.9-0.9,2-1.6,3.2-2.2c-1,4.3-2.5,7.4-4.6,9.5l-1.5-0.9C385.3,188.6,386.1,186.5,386.3,185.4z M381.7,193.3
		l0.4,0c-0.5,1-1,1.5-1.3,1.5l-0.1-1C380.9,193.8,381.2,193.6,381.7,193.3z M378.7,200.5c0.7-2.9,1.4-4.6,2.1-5l0,0.3
		c-0.4,2.7-1,4.1-1.8,4.2l0.1,1.7c-0.6,0.9-0.9,1.6-0.9,2.2l-0.4,0l-0.2-2.3C378.1,201.6,378.4,201.2,378.7,200.5z M377.5,204.4
		c0,0.4-0.2,1.3-0.8,2.8l-0.4,0l-0.1-1C376.8,205,377.2,204.4,377.5,204.4L377.5,204.4z M355.8,267.5l0-0.3l0.7-0.1l0.1,1
		C356.1,268.2,355.9,268,355.8,267.5z M386.8,268.3c0-0.2-0.1-0.4-0.4-0.3l-1.8,0.2l0-0.4h0.2l4.2-0.4l0,0.4
		C387.8,267.9,387.1,268,386.8,268.3z M384.8,267.5c0.2,0.1,0.1,0.2,0,0.2C384.7,267.6,384.6,267.6,384.8,267.5z M385,262.6
		l-2.3,0.2l0-0.4l2.1-0.2l1.8-0.5c0,0.2,0.1,0.3,0.4,0.3c2.2-0.4,2-0.5,3-0.6c0.4,0,0.6,0.2,0.6,0.6L385,262.6z M393.1,261.9
		c-1.3-0.1-1.4-0.2-2.3-0.2l0-0.3l2.1-0.2l0,0.3C392.7,261.6,393.4,261.6,393.1,261.9z M393.3,261.5l0-0.3l1.1-0.1l0,0.3
		L393.3,261.5z M395.8,261.3l0-0.3c0.2,0,0.5-0.2,0.8-0.4c0.6-0.1,0.9,0.3,0.9,0.8L395.8,261.3z M399,260.9l0-0.4l1.4-0.1l0,0.4
		L399,260.9z M400.9,260.7c0-0.4,0.1-0.6,0.5-0.7l0.5,0.6c0-0.2,0.1-0.3,0.2-0.3l0.4,0.6L400.9,260.7z M427.4,257.6L427.4,257.6
		L427.4,257.6L427.4,257.6z M427.9,257.3c0.2-0.1,0.3-0.3-0.2-0.4c-0.2,0.3,0.3,0.4-0.3,0.4l0,0.2c0.1-0.1,0.2-0.1,0.3-0.2l-0.3,0.2
		v0l-0.6,0.7l1.1-0.4h0.1l-0.1-0.7L427.9,257.3z M429.9,258.8l-0.2,0l0.1,0.7l1.6-0.1C431.3,258.9,430.2,258.8,429.9,258.8z"/>
</g>
</svg>
