<?xml version="1.0" encoding="utf-8"?>
<!-- Generator: Adobe Illustrator 19.0.0, SVG Export Plug-In . SVG Version: 6.00 Build 0)  -->
<svg version="1.1" id="Layer_1" xmlns="http://www.w3.org/2000/svg" xmlns:xlink="http://www.w3.org/1999/xlink" x="0px" y="0px"
	 viewBox="0 0 500 500" style="enable-background:new 0 0 500 500;" xml:space="preserve">
<style type="text/css">
	.st0{fill:#C63D14;}
	.st1{fill:#FFFFFF;}
</style>
<g id="XMLID_1_">
	<path id="XMLID_2_" class="st0" d="M394.6,247.2c0-18.8-15.2-34-34-34c-1.2,0-2.4,0.1-3.6,0.2l46.7-137.6H205.4L252,213.3
		c-0.7,0-1.4-0.1-2.1-0.1c-18.8,0-34,15.2-34,34c0,15.2,9.9,28,23.7,32.4c-7.2,12.6-16.4,23.9-26.7,33.6
		c-14.1,13.3-30.2,23.3-47.6,29.6c-20.7-10.7-30.5-34.4-21.7-55.1c1-2.3,2-4.7,3-7.1c15-3.5,26.2-17,26.2-33.1c0-18.8-15.2-34-34-34
		c-18.8,0-34,15.2-34,34c0,11.5,5.7,21.7,14.5,27.8c-8.4,19.1-20.8,39.2-24.6,62.4c-4.6,27.8,0,57.4,24.1,74.1
		c56.1,38.9,116.9-24.1,181.1-39.9c23.3-5.7,48.8-4.8,69.3-16.7c15.4-8.9,25.5-23.7,28.4-40.3c2.8-16.4-1.3-32.7-10.8-45.9
		C391.6,263.1,394.6,255.5,394.6,247.2z M283.9,247.3l0-0.1c0-12.3-6.6-23.1-16.4-29.1l37.1-75l37.2,75.8
		c-9.1,6.1-15.1,16.5-15.1,28.3c0,0.2,0,0.5,0,0.7L283.9,247.3z"/>
	<path id="XMLID_5_" class="st1" d="M402.9,247.2c0-20.6-14.9-37.9-34.5-41.5l46.8-138.2H193.8L240.7,206
		c-18.9,4.2-33.1,21.1-33.1,41.3c0,15.1,8,28.4,20,35.9c-5.8,8.6-12.6,16.7-20.4,24.1c-12.4,11.7-26.3,20.6-41.2,26.5
		c-15-9.4-21.4-27.2-14.8-42.8l0.5-1.2c0.3-0.8,0.6-1.5,1-2.3c16.5-5.8,28.4-21.5,28.4-39.9c0-23.3-19-42.3-42.3-42.3
		c-23.3,0-42.3,19-42.3,42.3c0,11.8,4.8,22.4,12.6,30.1c-1.4,3-2.9,6.1-4.4,9.2c-7.1,14.6-15.2,31.2-18.2,49.6
		c-6.1,36.5,3.7,65.7,27.5,82.2c14.4,10,29.1,13.9,43.9,13.9c27.8,0,55.9-14,83.4-27.6c19.8-9.8,40.3-20,60.5-25
		c7.5-1.9,15.3-3,23.5-4.2c16.3-2.3,33.1-4.8,48-13.4c17.3-10,29.1-26.8,32.4-46c2.9-16.5-0.6-33.1-9-47.1
		C400.6,262.8,402.9,255.3,402.9,247.2z M386.3,247.2c0,14.2-11.5,25.7-25.7,25.7c-14.2,0-25.7-11.5-25.7-25.7s11.5-25.7,25.7-25.7
		C374.7,221.5,386.3,233.1,386.3,247.2z M392.1,84.1l-41.4,122c-1.8,0.4-3.5,1-5.2,1.6l-40.9-83.4l-41,82.9
		c-1.8-0.6-3.6-1.1-5.5-1.5L216.9,84.1H392.1z M249.9,221.5c14.2,0,25.7,11.5,25.7,25.7s-11.5,25.7-25.7,25.7
		c-14.2,0-25.7-11.5-25.7-25.7S235.7,221.5,249.9,221.5z M138.8,221.8c14.2,0,25.7,11.5,25.7,25.7c0,14.2-11.5,25.7-25.7,25.7
		c-14.2,0-25.7-11.5-25.7-25.7C113.1,233.3,124.7,221.8,138.8,221.8z M389.3,313.5c-2.5,14.4-11.4,27-24.4,34.5
		c-12.1,7-26.6,9.1-42,11.3c-8.2,1.2-16.8,2.4-25.1,4.5c-22,5.4-43.3,16-63.9,26.2c-41.2,20.5-76.9,38.2-110.4,14.9
		c-24.6-17-23.5-48.6-20.6-65.9c2.7-16,9.8-30.8,16.8-45c1.2-2.5,2.4-4.9,3.5-7.3c3.4,1.4,7.1,2.3,10.9,2.7
		c-7.1,23.3,4,48.7,27.4,60.7l3.2,1.6l3.4-1.2c18.4-6.6,35.4-17.1,50.5-31.3c9.7-9.2,18.1-19.4,25-30.2c2.1,0.3,4.2,0.5,6.3,0.5
		c23.3,0,42.3-19,42.3-42.3c0-12.5-5.5-23.8-14.2-31.6l26.6-53.7l26.8,54.7c-8.1,7.7-13.1,18.5-13.1,30.5c0,23.3,19,42.3,42.3,42.3
		c9,0,17.3-2.8,24.1-7.6C389.4,291.6,391.2,302.6,389.3,313.5z"/>
</g>
</svg>
