<?xml version="1.0" encoding="UTF-8" standalone="no"?>
<!-- Generator: Adobe Illustrator 19.0.0, SVG Export Plug-In . SVG Version: 6.00 Build 0)  -->

<svg
   xmlns:dc="http://purl.org/dc/elements/1.1/"
   xmlns:cc="http://creativecommons.org/ns#"
   xmlns:rdf="http://www.w3.org/1999/02/22-rdf-syntax-ns#"
   xmlns:svg="http://www.w3.org/2000/svg"
   xmlns="http://www.w3.org/2000/svg"
   xmlns:sodipodi="http://sodipodi.sourceforge.net/DTD/sodipodi-0.dtd"
   xmlns:inkscape="http://www.inkscape.org/namespaces/inkscape"
   version="1.1"
   id="Layer_1"
   x="0px"
   y="0px"
   viewBox="0 0 500 500"
   style="enable-background:new 0 0 500 500;"
   xml:space="preserve"
   inkscape:version="0.91 r13725"
   sodipodi:docname="jquery.svg"><metadata
     id="metadata20"><rdf:RDF><cc:Work
         rdf:about=""><dc:format>image/svg+xml</dc:format><dc:type
           rdf:resource="http://purl.org/dc/dcmitype/StillImage" /></cc:Work></rdf:RDF></metadata><defs
     id="defs18" /><sodipodi:namedview
     pagecolor="#ffffff"
     bordercolor="#666666"
     borderopacity="1"
     objecttolerance="10"
     gridtolerance="10"
     guidetolerance="10"
     inkscape:pageopacity="0"
     inkscape:pageshadow="2"
     inkscape:window-width="1858"
     inkscape:window-height="1057"
     id="namedview16"
     showgrid="false"
     inkscape:zoom="0.472"
     inkscape:cx="250"
     inkscape:cy="250"
     inkscape:window-x="-8"
     inkscape:window-y="-8"
     inkscape:window-maximized="1"
     inkscape:current-layer="Layer_1" /><style
     type="text/css"
     id="style3">
	.st0{fill:#1A1918;}
	.st1{fill:#21609B;}
</style><g
     id="XMLID_1_"
     transform="translate(-0.01459724,-0.0683487)"><path
       id="XMLID_4_"
       class="st0"
       d="m 417.2,214.7 15.3,0.1 c 0,0 -28.5,38.6 -30.8,41.8 -0.8,1 -1.9,2.1 -2.5,3.5 -1.5,3.4 -3,10.9 -3,10.9 l -14,0.1 c 0,0 2.2,-7.8 2.1,-12 -0.1,-3.6 -1.9,-7.3 -3,-10.9 -1.1,-3.7 -2.5,-10.9 -2.5,-10.9 l 14.4,0 2,8 22,-30.6"
       inkscape:connector-curvature="0"
       style="fill:#1a1918" /><path
       id="XMLID_5_"
       class="st0"
       d="m 388.2,222.8 c 2.8,1.7 4.6,11.1 4.6,11.1 0,0 -14.8,0.2 -22.9,0.2 l -7,0 -8.5,36.8 -12.9,0 c 0,0 8,-40 9.9,-47.2 0.6,-2.3 4.2,-1.9 10.3,-1.9 l 9.7,0 c 6.3,-0.1 13.7,-0.9 16.8,1"
       inkscape:connector-curvature="0"
       style="fill:#1a1918" /><path
       id="XMLID_8_"
       class="st0"
       d="m 328,240.7 c 0,0 0.4,-2.4 -1.4,-5.1 -1.5,-2.3 -2.9,-2.9 -6.9,-3 -11.2,-0.4 -11,8 -11,8 l 19.3,0.1 z m 12.2,-9.5 c 1.6,5.9 -1.5,19.9 -1.5,19.9 0,0 -16.4,-0.3 -25.4,0 -2.8,0.1 -6.1,-0.3 -7,1 -1.2,1.8 0.4,4.6 1.8,5.8 1.6,1.4 4.6,1.5 5.7,1.7 7.3,0.9 22.5,0.2 22.5,0.2 l -2.6,11.7 c 0,0 -21.5,1.1 -32.3,-1.5 -2.1,-0.5 -4.1,-1.5 -5.5,-3 -0.4,-0.4 -0.7,-0.9 -1,-1.4 -0.3,-0.4 -1.1,-1.6 -1.5,-2.6 -2.5,-6.6 0.3,-19.1 3,-25.8 0.3,-0.8 0.7,-1.8 1.1,-2.6 0.5,-1 1,-2.2 1.4,-2.9 0.3,-0.4 0.6,-0.7 0.9,-1.1 0.3,-0.5 0.7,-0.9 1.1,-1.4 1,-1.2 2.1,-2 3.5,-3 4.5,-3.4 12.6,-6 22.4,-5 3.7,0.4 9.2,1.7 11.9,5.5 0.7,1 1.1,3 1.5,4.5 z"
       inkscape:connector-curvature="0"
       style="fill:#1a1918" /><path
       id="XMLID_9_"
       class="st0"
       d="m 280.9,221.7 12.5,-0.1 c 0,0 -7,33.1 -10.5,49.3 l -14.4,0 c -10.1,0 -19,1.2 -22.9,-6 -3.7,-7 -0.2,-18.5 1.5,-26.3 1.2,-5.5 3.6,-16.9 3.6,-16.9 l 13,-0.1 c 0,0 -3.7,17.6 -5.2,26.4 -0.5,3.2 -1.7,6.1 -0.5,8.5 1.1,2.2 2.7,2.4 7.5,2.5 1.5,0 6.5,0 6.5,0 l 8.9,-37.3"
       inkscape:connector-curvature="0"
       style="fill:#1a1918" /><path
       id="XMLID_12_"
       class="st0"
       d="m 222.2,245.6 c 1.3,-4.7 3.2,-9.7 3,-13.9 -0.3,-4.5 -4,-8.6 -6.5,-9.4 -7.3,-2.6 -14.2,1 -16.9,4 -3.5,3.8 -4.7,8.3 -6,14.4 -0.9,4.6 -1.7,9.4 0,12.9 3,6.3 12.3,4.9 22.4,5 1.5,-4.1 2.8,-8.6 4,-13 z m 17.4,-18.4 c 1.4,10.4 -4.1,21.9 -7.8,31.9 3.9,0.3 7.2,-0.1 7.5,0.2 0.3,0.4 -2.6,11.9 -3.6,12 -3.1,0.1 -13.2,0.2 -17.4,0.2 -13.8,0 -26.7,0.9 -33.3,-6 -2.7,-2.8 -4.5,-7.6 -5,-10.9 -0.7,-5.6 0.2,-11.8 1.5,-16.9 1.2,-4.6 2.7,-8.9 5,-12.9 5.8,-10.1 15.9,-17.6 32.8,-15.9 3.3,0.3 8,1.8 10.9,3.5 0.2,0.1 0.9,0.7 1.1,0.8 3.9,2.4 7.6,8.4 8.3,14 z"
       inkscape:connector-curvature="0"
       style="fill:#1a1918" /><path
       id="XMLID_13_"
       class="st0"
       d="m 178.5,221.8 c -0.8,3.8 -1.7,8.1 -2.6,11.9 l -13.9,0 c 1.1,-4.2 1.9,-8.3 3,-11.9 4.5,-0.1 8.7,0 13.5,0"
       inkscape:connector-curvature="0"
       style="fill:#1a1918" /><path
       id="XMLID_14_"
       class="st0"
       d="m 161.6,237.1 13.4,0 c -1.8,9.7 -5.2,25.4 -8,36.3 -1.7,6.8 -2.8,11.8 -7.5,15.4 -0.4,0.3 -0.7,0.2 -1,0.5 -0.9,0.8 -4.8,1.8 -7,2 -3.5,0.4 -7.5,0 -11.9,0 1.1,-4.2 2.4,-9.2 3.4,-12.9 10.6,1.3 10.9,-8.7 12.9,-18.4 1.4,-5.6 5,-20.7 5.7,-22.9"
       inkscape:connector-curvature="0"
       style="fill:#1a1918" /><path
       id="XMLID_15_"
       class="st1"
       d="m 130.3,262.5 -0.3,0.7 c -4.9,9.5 -13.6,15.4 -26,15.7 -5.8,0.1 -11.3,-1.4 -14.9,-3 -7.8,-3.5 -14.3,-10 -17.9,-16.9 -5.1,-9.9 -6,-23.7 4.6,-34.1 0.2,0 -1.3,2.2 -1.1,2.2 l -0.3,1 c -7.7,24 16,44.6 39,42.3 5.5,-0.6 12.5,-3.6 16.9,-7.9"
       inkscape:connector-curvature="0"
       style="fill:#21609b" /><path
       id="XMLID_16_"
       class="st1"
       d="m 116.3,252.5 c 5.8,0 11.8,-2.7 15.4,-6.5 -3.1,7.9 -12.2,13.1 -24.4,11.4 -10.2,-1.4 -19.9,-11.6 -20.9,-21.9 -0.7,-7.5 1.9,-11.9 6.2,-17.3 -1.5,2.8 -2,5 -2.2,6.4 -1.5,16.2 13,27.8 25.9,27.9"
       inkscape:connector-curvature="0"
       style="fill:#21609b" /><path
       id="XMLID_17_"
       class="st1"
       d="m 131.2,232.4 c -0.9,2.1 -6.1,6 -8.4,6.4 -9.1,1.9 -14.9,-2.4 -17.9,-7.3 -0.5,-0.7 -1.3,-2.7 -1.4,-3.2 -1.2,-4 -0.6,-10.1 2.9,-13.2 -1.1,3 -1.2,6.4 -0.7,8.7 0.3,1.4 1.4,3.7 2.4,5.2 1.9,2.7 3.1,3.4 5.5,4.8 1.1,0.7 2.2,1.2 2.7,1.3 2.3,0.9 7.1,2.6 14.9,-2.7"
       inkscape:connector-curvature="0"
       style="fill:#21609b" /></g></svg>