<?xml version="1.0" encoding="UTF-8" standalone="no"?>
<!-- Created with Inkscape (http://www.inkscape.org/) -->

<svg
   xmlns:dc="http://purl.org/dc/elements/1.1/"
   xmlns:cc="http://creativecommons.org/ns#"
   xmlns:rdf="http://www.w3.org/1999/02/22-rdf-syntax-ns#"
   xmlns:svg="http://www.w3.org/2000/svg"
   xmlns="http://www.w3.org/2000/svg"
   xmlns:sodipodi="http://sodipodi.sourceforge.net/DTD/sodipodi-0.dtd"
   xmlns:inkscape="http://www.inkscape.org/namespaces/inkscape"
   width="270mm"
   height="270mm"
   viewBox="0 0 956.69289 956.69289"
   id="svg2"
   version="1.1"
   inkscape:version="0.91 r13725"
   sodipodi:docname="nunit.svg">
  <defs
     id="defs4" />
  <sodipodi:namedview
     id="base"
     pagecolor="#ffffff"
     bordercolor="#666666"
     borderopacity="1.0"
     inkscape:pageopacity="0.0"
     inkscape:pageshadow="2"
     inkscape:zoom="0.35"
     inkscape:cx="-482.14286"
     inkscape:cy="634.28571"
     inkscape:document-units="px"
     inkscape:current-layer="layer1"
     showgrid="false"
     inkscape:window-width="1858"
     inkscape:window-height="1057"
     inkscape:window-x="-8"
     inkscape:window-y="-8"
     inkscape:window-maximized="1" />
  <metadata
     id="metadata7">
    <rdf:RDF>
      <cc:Work
         rdf:about="">
        <dc:format>image/svg+xml</dc:format>
        <dc:type
           rdf:resource="http://purl.org/dc/dcmitype/StillImage" />
        <dc:title></dc:title>
      </cc:Work>
    </rdf:RDF>
  </metadata>
  <g
     inkscape:label="Layer 1"
     inkscape:groupmode="layer"
     id="layer1"
     transform="translate(0,-95.669292)">
    <path
       style="fill:#005b0c;fill-opacity:1"
       d="M 435.9219,946.15087 C 356.59154,936.35722 279.50494,900.30891 221.74232,845.99331 139.39209,768.5574 93.946031,647.78799 106.19474,538.93456 c 5.18198,-46.05185 16.00564,-85.48029 33.54476,-122.19686 39.3617,-82.40013 94.66791,-138.57526 175.68613,-178.44632 146.62316,-72.15685 323.21972,-39.97722 435.41804,79.34236 106.72007,113.49363 131.93237,280.02749 63.54141,419.70873 -62.27198,127.18399 -180.57856,204.22415 -322.86665,210.24784 -17.99461,0.7618 -43.01306,0.1141 -55.59653,-1.43944 z m 123.32907,-62.07088 c 57.43636,-14.91119 114.34675,-49.10282 154.90601,-93.06718 15.26648,-16.54816 21.48207,-21.1538 30.38556,-22.5152 15.38796,-2.35291 26.20162,-10.12513 33.21542,-23.87327 6.92985,-13.58362 7.57767,-28.44755 1.72841,-39.65737 -3.67133,-7.03588 -3.32024,-10.4731 2.99215,-29.29426 C 808.37369,598.4633 802.56787,508.1656 767.00863,435.06933 725.11268,348.94722 648.2946,286.69803 554.90779,263.19438 c -27.33407,-6.87946 -33.74039,-9.71247 -43.57325,-19.26896 -19.86764,-19.30927 -47.06157,-19.23746 -66.04404,0.1744 -9.42552,9.63872 -15.21321,12.21991 -42.93941,19.15006 -93.39419,23.34377 -170.10013,85.48201 -212.10083,171.81945 -35.3966,72.7619 -41.35259,163.43119 -15.75014,239.76784 5.86965,17.50107 6.32314,21.7713 3.11097,29.29426 -5.50563,12.89426 -4.83256,27.31593 1.88984,40.49291 7.01377,13.74814 17.82746,21.52036 33.21542,23.87327 8.88056,1.35789 15.09943,5.94504 30.10019,22.20256 47.37941,51.34867 110.05775,85.87671 179.8516,99.07606 36.3932,6.88262 98.03238,4.31194 136.58283,-5.69624 z M 440.49771,852.81255 c -65.36469,-10.4974 -125.09818,-41.72252 -166.5266,-87.0502 l -13.99966,-15.31731 4.56173,-12.68566 c 9.54449,-26.5421 -3.45416,-50.02575 -32.99736,-59.61378 l -16.77797,-5.44518 -7.27813,-25.6392 C 197.00606,610.16487 196.5971,541.6729 206.62537,503.97627 232.56678,406.46152 312.43409,326.61701 408.01804,302.64105 l 25.48057,-6.39146 10.40265,10.71125 c 20.82868,21.44663 50.2906,21.35254 70.05369,-0.22375 l 9.64391,-10.52872 25.56129,6.41206 c 54.15038,13.58367 112.11428,50.86285 146.82523,94.42988 28.26845,35.48083 43.2466,65.64334 56.12713,113.02702 7.52308,27.67513 7.55475,100.24753 0.0558,128.12262 -9.15345,34.02573 -10.19457,35.63083 -25.63224,39.5181 -28.43261,7.15941 -43.31994,33.59662 -33.81049,60.04131 l 4.56174,12.68567 -13.99968,15.3173 c -50.40552,55.14982 -117.37982,85.08833 -195.50661,87.39441 -20.97245,0.61904 -42.24996,0.46417 -47.28335,-0.34419 z M 397.46318,725.09101 c 5.36065,-2.54381 12.42439,-9.06434 15.69713,-14.49006 5.42035,-8.98609 6.08783,-17.61042 7.49233,-96.8053 l 1.54184,-86.94035 8.55761,-14.55836 c 4.70667,-8.00711 14.2156,-18.30267 21.13099,-22.87903 10.97279,-7.26146 15.58005,-8.32068 36.19208,-8.32068 20.71492,0 24.57425,0.89772 31.39117,7.30187 15.6428,14.69566 18.05666,30.31819 19.95611,129.1564 l 1.74304,90.7002 9.43648,9.43114 c 17.90736,17.8972 46.63761,14.4093 58.38636,-7.08823 4.85459,-8.88278 5.38197,-20.01532 5.30833,-112.05566 -0.0784,-98.11843 -0.34968,-102.86198 -6.80175,-118.97099 -9.71417,-24.25339 -22.35139,-37.89834 -45.78273,-49.43357 -18.78271,-9.2467 -22.74506,-10.04942 -49.46265,-10.02047 -25.33213,0.0274 -31.38361,1.11854 -47.34751,8.53683 -10.08544,4.68664 -25.49377,15.58276 -34.31855,24.26864 -15.67785,15.43109 -16.01533,15.58662 -16.01533,7.38052 0,-12.54924 -7.32199,-27.65594 -17.17093,-35.42696 -7.07688,-5.58382 -11.37549,-6.61836 -22.38711,-5.38791 -17.35008,1.93871 -29.33789,14.33688 -32.0984,33.19715 -1.05927,7.2371 -1.49963,66.00892 -0.97858,130.60408 0.84941,105.30254 1.50329,118.46281 6.32416,127.28265 9.68909,17.72635 29.88677,23.68563 49.20591,14.51809 z"
       id="path4147"
       inkscape:connector-curvature="0"
       inkscape:export-xdpi="90"
       inkscape:export-ydpi="90" />
  </g>
</svg>
