<?xml version="1.0" encoding="UTF-8" standalone="no"?>
<!-- Generator: Adobe Illustrator 19.0.0, SVG Export Plug-In . SVG Version: 6.00 Build 0)  -->

<svg
   xmlns:dc="http://purl.org/dc/elements/1.1/"
   xmlns:cc="http://creativecommons.org/ns#"
   xmlns:rdf="http://www.w3.org/1999/02/22-rdf-syntax-ns#"
   xmlns:svg="http://www.w3.org/2000/svg"
   xmlns="http://www.w3.org/2000/svg"
   xmlns:sodipodi="http://sodipodi.sourceforge.net/DTD/sodipodi-0.dtd"
   xmlns:inkscape="http://www.inkscape.org/namespaces/inkscape"
   version="1.1"
   id="Layer_1"
   x="0px"
   y="0px"
   viewBox="0 0 500 500"
   style="enable-background:new 0 0 500 500;"
   xml:space="preserve"
   inkscape:version="0.91 r13725"
   sodipodi:docname="python.svg"><metadata
     id="metadata60"><rdf:RDF><cc:Work
         rdf:about=""><dc:format>image/svg+xml</dc:format><dc:type
           rdf:resource="http://purl.org/dc/dcmitype/StillImage" /></cc:Work></rdf:RDF></metadata><defs
     id="defs58" /><sodipodi:namedview
     pagecolor="#ffffff"
     bordercolor="#666666"
     borderopacity="1"
     objecttolerance="10"
     gridtolerance="10"
     guidetolerance="10"
     inkscape:pageopacity="0"
     inkscape:pageshadow="2"
     inkscape:window-width="1858"
     inkscape:window-height="1057"
     id="namedview56"
     showgrid="false"
     inkscape:zoom="0.472"
     inkscape:cx="-122.13282"
     inkscape:cy="190.93101"
     inkscape:window-x="-8"
     inkscape:window-y="-8"
     inkscape:window-maximized="1"
     inkscape:current-layer="Layer_1" /><style
     type="text/css"
     id="style3">
	.st0{fill:#646464;}
	.st1{fill:url(#path1948_1_);}
	.st2{fill:url(#path1950_1_);}
	.st3{filter:url(#Adobe_OpacityMaskFilter);}
	.st4{filter:url(#Adobe_OpacityMaskFilter_1_);}
	.st5{mask:url(#path1894_2_);fill:url(#path1894_3_);}
	.st6{opacity:0.4438;fill:url(#path1894_4_);enable-background:new    ;}
</style><g
     id="g2303"
     transform="translate(-0.06862985,10.05)"><path
       id="path46"
       class="st0"
       d="m 204.5,242 c 0,-11.3 -3.2,-17.2 -9.7,-17.5 -2.6,-0.1 -5.1,0.3 -7.5,1.2 -2,0.7 -3.3,1.4 -4,2.1 l 0,27.1 c 4.1,2.6 7.8,3.8 11,3.6 6.8,-0.4 10.2,-5.9 10.2,-16.5 z m 8,0.5 c 0,5.8 -1.4,10.6 -4.1,14.4 -3,4.3 -7.2,6.5 -12.6,6.6 -4,0.1 -8.2,-1.1 -12.5,-3.8 l 0,24.6 -6.9,-2.5 0,-54.6 c 1.1,-1.4 2.6,-2.6 4.4,-3.6 4.1,-2.4 9.2,-3.6 15.1,-3.7 l 0.1,0.1 c 5.4,-0.1 9.6,2.1 12.5,6.6 2.6,4.1 4,9.4 4,15.9 z"
       inkscape:connector-curvature="0"
       style="fill:#646464" /><path
       id="path48"
       class="st0"
       d="m 254.9,258.7 c 0,7.7 -0.8,13.1 -2.3,16.1 -1.6,3 -4.5,5.4 -8.9,7.1 -3.5,1.4 -7.4,2.2 -11.5,2.3 l -1.1,-4.4 c 4.2,-0.6 7.1,-1.1 8.8,-1.7 3.4,-1.1 5.7,-2.9 6.9,-5.2 1,-1.9 1.5,-5.5 1.5,-10.9 l 0,-1.8 c -4.7,2.2 -9.7,3.2 -14.9,3.2 -3.4,0 -6.4,-1.1 -9,-3.2 -2.9,-2.3 -4.4,-5.3 -4.4,-8.9 l 0,-28.9 6.9,-2.4 0,29 c 0,3.1 1,5.5 3,7.2 2,1.7 4.6,2.5 7.8,2.4 3.2,-0.1 6.6,-1.3 10.2,-3.7 l 0,-33.9 6.9,0 0,37.7 z"
       inkscape:connector-curvature="0"
       style="fill:#646464" /><path
       id="path50"
       class="st0"
       d="m 282,263.1 c -0.8,0.1 -1.6,0.1 -2.3,0.1 -3.9,0 -7,-0.9 -9.2,-2.8 -2.2,-1.9 -3.3,-4.5 -3.3,-7.8 l 0,-27.3 -4.8,0 0,-4.4 4.8,0 0,-11.6 6.9,-2.5 0,14.1 7.8,0 0,4.4 -7.8,0 0,27.2 c 0,2.6 0.7,4.5 2.1,5.5 1.2,0.9 3.1,1.4 5.7,1.5 l 0,3.6 z"
       inkscape:connector-curvature="0"
       style="fill:#646464" /><path
       id="path52"
       class="st0"
       d="m 324.1,262.5 -6.9,0 0,-26.8 c 0,-2.7 -0.6,-5.1 -1.9,-7 -1.5,-2.2 -3.5,-3.3 -6.1,-3.3 -3.2,0 -7.2,1.7 -11.9,5 l 0,32.1 -6.9,0 0,-64.1 6.9,-2.2 0,29.2 c 4.4,-3.2 9.3,-4.8 14.5,-4.8 3.7,0 6.7,1.2 8.9,3.7 2.3,2.5 3.4,5.5 3.4,9.2 l 0,29 0,0 z"
       inkscape:connector-curvature="0"
       style="fill:#646464" /><path
       id="path54"
       class="st0"
       d="m 361,240.9 c 0,-4.4 -0.8,-8 -2.5,-10.8 -2,-3.5 -5,-5.3 -9.1,-5.5 -7.6,0.4 -11.4,5.9 -11.4,16.3 0,4.8 0.8,8.8 2.4,12 2,4.1 5.1,6.1 9.2,6 7.5,0.1 11.4,-6 11.4,-18 z m 7.6,0.1 c 0,6.2 -1.6,11.4 -4.8,15.5 -3.5,4.6 -8.3,6.9 -14.4,6.9 -6.1,0 -10.8,-2.3 -14.3,-6.9 -3.1,-4.1 -4.7,-9.3 -4.7,-15.5 0,-5.8 1.7,-10.7 5,-14.7 3.5,-4.2 8.2,-6.4 14,-6.4 5.8,0 10.5,2.1 14.1,6.4 3.4,3.9 5.1,8.8 5.1,14.7 z"
       inkscape:connector-curvature="0"
       style="fill:#646464" /><path
       id="path56"
       class="st0"
       d="m 408.4,262.5 -6.9,0 0,-28.3 c 0,-3.1 -0.9,-5.5 -2.8,-7.3 -1.9,-1.7 -4.4,-2.6 -7.5,-2.5 -3.3,0.1 -6.4,1.1 -9.4,3.2 l 0,34.9 -6.9,0 0,-35.7 c 4,-2.9 7.7,-4.8 11,-5.7 3.2,-0.8 6,-1.2 8.4,-1.2 1.6,0 3.2,0.2 4.7,0.5 2.7,0.6 4.9,1.8 6.7,3.5 1.9,1.9 2.9,4.2 2.9,6.8 l 0,31.8 z"
       inkscape:connector-curvature="0"
       style="fill:#646464" /><linearGradient
       id="path1948_1_"
       gradientUnits="userSpaceOnUse"
       x1="128.2906"
       y1="138.70711"
       x2="213.2489"
       y2="65.6119"
       gradientTransform="matrix(0.5625,0,0,-0.568,-9.2879,280.0263)"><stop
         offset="0"
         style="stop-color:#5A9FD4"
         id="stop13" /><stop
         offset="1"
         style="stop-color:#306998"
         id="stop15" /></linearGradient><path
       id="path1948"
       class="st1"
       d="m 107.8,198.8 c -3.6,0 -7,0.3 -10,0.9 -8.8,1.6 -10.4,4.8 -10.4,10.9 l 0,8 20.9,0 0,2.7 -20.9,0 -7.8,0 c -6.1,0 -11.4,3.6 -13.1,10.6 -1.9,8 -2,12.9 0,21.2 1.5,6.2 5,10.6 11.1,10.6 l 7.2,0 0,-9.7 c 0,-6.9 6,-13 13.1,-13 l 20.9,0 c 5.8,0 10.4,-4.8 10.4,-10.6 l 0,-19.9 c 0,-5.7 -4.8,-9.9 -10.4,-10.9 -3.7,-0.6 -7.4,-0.9 -11,-0.8 z m -11.3,6.4 c 2.2,0 3.9,1.8 3.9,4 0,2.2 -1.8,4 -3.9,4 -2.2,0 -3.9,-1.8 -3.9,-4 0,-2.3 1.7,-4 3.9,-4 z"
       style="fill:url(#path1948_1_)"
       inkscape:connector-curvature="0" /><linearGradient
       id="path1950_1_"
       gradientUnits="userSpaceOnUse"
       x1="246.0929"
       y1="21.378201"
       x2="215.756"
       y2="64.299599"
       gradientTransform="matrix(0.5625,0,0,-0.568,-9.2879,280.0263)"><stop
         offset="0"
         style="stop-color:#FFD43B"
         id="stop19" /><stop
         offset="1"
         style="stop-color:#FFE873"
         id="stop21" /></linearGradient><path
       id="path1950"
       class="st2"
       d="m 131.7,221.1 0,9.3 c 0,7.2 -6.1,13.2 -13.1,13.2 l -20.8,0 c -5.7,0 -10.4,4.9 -10.4,10.6 l 0,19.9 c 0,5.7 4.9,9 10.4,10.6 6.6,1.9 13,2.3 20.9,0 5.3,-1.5 10.4,-4.6 10.4,-10.6 l 0,-8 -20.9,0 0,-2.7 20.9,0 10.4,0 c 6.1,0 8.3,-4.2 10.4,-10.6 2.2,-6.5 2.1,-12.8 0,-21.2 -1.5,-6 -4.4,-10.6 -10.4,-10.6 l -7.8,0 z M 120,271.5 c 2.2,0 3.9,1.8 3.9,4 0,2.2 -1.8,4 -3.9,4 -2.2,0 -3.9,-1.8 -3.9,-4 0,-2.3 1.7,-4 3.9,-4 z"
       style="fill:url(#path1950_1_)"
       inkscape:connector-curvature="0" /><path
       id="text3004"
       class="st0"
       d="m 421.9,214.7 1.2,0 0,-7.6 2.9,0 0,-0.9 -7,0 0,0.9 2.9,0 0,7.6 m 5.2,0 1,0 0,-7 2.3,7 1.2,0 2.4,-6.9 0,6.9 1.1,0 0,-8.5 -1.5,0 -2.6,7.3 -2.2,-7.3 -1.7,0 0,8.5"
       inkscape:connector-curvature="0"
       style="fill:#646464" /><defs
       id="defs25"><filter
         id="Adobe_OpacityMaskFilter"
         filterUnits="userSpaceOnUse"
         x="80.5"
         y="292.79999"
         width="56"
         height="10.9"><feFlood
           result="back"
           id="feFlood28" /><feBlend
           in="SourceGraphic"
           in2="back"
           mode="normal"
           id="feBlend30" /></filter></defs><mask
       maskUnits="userSpaceOnUse"
       x="80.5"
       y="292.8"
       width="56"
       height="10.9"
       id="path1894_2_"><g
         id="XMLID_14_"
         class="st3"
         style="filter:url(#Adobe_OpacityMaskFilter)"><defs
           id="defs34"><filter
             id="Adobe_OpacityMaskFilter_1_"
             filterUnits="userSpaceOnUse"
             x="80.5"
             y="292.79999"
             width="56"
             height="10.9"><feFlood
               result="back"
               id="feFlood37" /><feBlend
               in="SourceGraphic"
               in2="back"
               mode="normal"
               id="feBlend39" /></filter></defs><mask
           maskUnits="userSpaceOnUse"
           x="80.5"
           y="292.8"
           width="56"
           height="10.9"
           id="mask41"><g
             id="XMLID_17_"
             class="st4"
             style="filter:url(#Adobe_OpacityMaskFilter_1_)" /></mask><radialGradient
           id="path1894_3_"
           cx="-616.04358"
           cy="324.7637"
           r="22.6292"
           gradientTransform="matrix(0,-0.2399,-1.0547,0,451.0249,150.4751)"
           gradientUnits="userSpaceOnUse"><stop
             offset="0"
             style="stop-color:#7F7F7F"
             id="stop45" /><stop
             offset="1"
             style="stop-color:#000000"
             id="stop47" /></radialGradient><path
           id="path1894_1_"
           class="st5"
           d="m 136.5,298.3 c 0,3 -12.5,5.4 -28,5.4 -15.5,0 -28,-2.4 -28,-5.4 0,-3 12.5,-5.4 28,-5.4 15.5,0 28,2.4 28,5.4 z"
           mask="url(#path1894_2_)"
           inkscape:connector-curvature="0"
           style="fill:url(#path1894_3_)" /></g></mask><radialGradient
       id="path1894_4_"
       cx="-616.04358"
       cy="324.7637"
       r="22.6292"
       gradientTransform="matrix(0,-0.2399,-1.0547,0,451.0249,150.4751)"
       gradientUnits="userSpaceOnUse"><stop
         offset="0"
         style="stop-color:#B8B8B8"
         id="stop51" /><stop
         offset="1"
         style="stop-color:#7F7F7F"
         id="stop53" /></radialGradient><path
       id="path1894"
       class="st6"
       d="m 136.5,298.3 c 0,3 -12.5,5.4 -28,5.4 -15.5,0 -28,-2.4 -28,-5.4 0,-3 12.5,-5.4 28,-5.4 15.5,0 28,2.4 28,5.4 z"
       style="opacity:0.44380002;fill:url(#path1894_4_);enable-background:new"
       inkscape:connector-curvature="0" /></g></svg>