<?xml version="1.0" encoding="utf-8"?>
<!-- Generator: Adobe Illustrator 19.0.0, SVG Export Plug-In . SVG Version: 6.00 Build 0)  -->
<svg version="1.1" id="Layer_1" xmlns="http://www.w3.org/2000/svg" xmlns:xlink="http://www.w3.org/1999/xlink" x="0px" y="0px"
	 viewBox="0 0 500 500" style="enable-background:new 0 0 500 500;" xml:space="preserve">
<style type="text/css">
	.st0{fill:#FFFFFF;}
	.st1{fill:#8ED6FB;}
	.st2{fill:#1C78C0;}
</style>
<g id="XMLID_1_">
	<polygon id="XMLID_2_" class="st0" points="250,43.5 432.5,146.7 432.5,353.3 250,456.5 67.5,353.3 67.5,146.7 	"/>
	<path id="XMLID_3_" class="st1" d="M399.9,346.1l-143.9,81.5v-63.4l89.7-49.4L399.9,346.1z M409.8,337.2V167l-52.6,30.4v109.5
		L409.8,337.2z M99.5,346.1l143.9,81.4v-63.4l-89.7-49.3L99.5,346.1z M89.7,337.2V167l52.6,30.4v109.5L89.7,337.2z M95.8,156
		l147.6-83.5v61.3l-94.6,52l-0.8,0.4L95.8,156z M403.6,156L256.1,72.5v61.3l94.5,52.1l0.8,0.4L403.6,156z"/>
	<path id="XMLID_10_" class="st2" d="M243.4,349.8L155,301.1v-96.3l88.4,51V349.8z M256.1,349.8l88.4-48.6v-96.4l-88.4,51V349.8z
		 M160.9,193.6l88.8-48.8l88.8,48.8l-88.8,51.2L160.9,193.6z"/>
</g>
</svg>
