<?xml version="1.0" encoding="UTF-8" standalone="no"?>
<!-- Generator: Adobe Illustrator 19.0.0, SVG Export Plug-In . SVG Version: 6.00 Build 0)  -->

<svg
   xmlns:dc="http://purl.org/dc/elements/1.1/"
   xmlns:cc="http://creativecommons.org/ns#"
   xmlns:rdf="http://www.w3.org/1999/02/22-rdf-syntax-ns#"
   xmlns:svg="http://www.w3.org/2000/svg"
   xmlns="http://www.w3.org/2000/svg"
   xmlns:sodipodi="http://sodipodi.sourceforge.net/DTD/sodipodi-0.dtd"
   xmlns:inkscape="http://www.inkscape.org/namespaces/inkscape"
   version="1.1"
   id="Layer_1"
   x="0px"
   y="0px"
   viewBox="0 0 96 96"
   style="enable-background:new 0 0 96 96;"
   xml:space="preserve"
   inkscape:version="0.91 r13725"
   sodipodi:docname="wordpress.svg"><metadata
     id="metadata9"><rdf:RDF><cc:Work
         rdf:about=""><dc:format>image/svg+xml</dc:format><dc:type
           rdf:resource="http://purl.org/dc/dcmitype/StillImage" /></cc:Work></rdf:RDF></metadata><defs
     id="defs7" /><sodipodi:namedview
     pagecolor="#ffffff"
     bordercolor="#666666"
     borderopacity="1"
     objecttolerance="10"
     gridtolerance="10"
     guidetolerance="10"
     inkscape:pageopacity="0"
     inkscape:pageshadow="2"
     inkscape:window-width="691"
     inkscape:window-height="480"
     id="namedview5"
     showgrid="false"
     inkscape:zoom="2.4583333"
     inkscape:cx="55.853401"
     inkscape:cy="48"
     inkscape:window-x="0"
     inkscape:window-y="0"
     inkscape:window-maximized="0"
     inkscape:current-layer="Layer_1" /><g
     id="XMLID_1_"
     transform="matrix(1.3550077,0,0,1.3550077,-17.04037,-17.04037)"><path
       id="XMLID_9_"
       d="m 27.4,48 c 0,8 4.7,14.8 11.6,18.1 L 29.2,39.8 C 28,42.3 27.4,45.1 27.4,48 Z m 34.5,-1 c 0,-2.5 -0.9,-4.2 -1.7,-5.5 -1,-1.7 -2,-3.1 -2,-4.7 0,-1.8 1.4,-3.6 3.5,-3.6 l 0.3,0 c -3.7,-3.3 -8.6,-5.3 -13.9,-5.3 -7.2,0 -13.5,3.6 -17.2,9.1 0.5,0 0.9,0 1.3,0 2.2,0 5.5,-0.3 5.5,-0.3 1.1,-0.1 1.2,1.5 0.1,1.7 0,0 -1.1,0.1 -2.4,0.2 l 7.5,21.8 4.5,-13.2 -3.2,-8.6 C 43.1,38.5 42,38.4 42,38.4 c -1.1,-0.1 -1,-1.7 0.1,-1.7 0,0 3.4,0.3 5.4,0.3 2.2,0 5.5,-0.3 5.5,-0.3 1.1,-0.1 1.2,1.5 0.1,1.7 0,0 -1.1,0.1 -2.4,0.2 l 7.5,21.6 2.1,-6.7 c 0.9,-2.8 1.6,-4.8 1.6,-6.5 l 0,0 z m -13.5,2.8 -6.2,17.5 c 1.8,0.5 3.8,0.8 5.8,0.8 2.4,0 4.7,-0.4 6.8,-1.1 L 54.7,66.7 48.4,49.8 Z M 66.1,38.4 c 0.1,0.6 0.1,1.3 0.1,2.1 0,2 -0.4,4.3 -1.6,7.2 l -6.3,17.7 c 6.1,-3.5 10.3,-10 10.3,-17.4 0,-3.5 -0.9,-6.8 -2.5,-9.6 l 0,0 z M 48,20.5 C 32.8,20.5 20.5,32.8 20.5,48 20.5,63.2 32.8,75.5 48,75.5 63.2,75.5 75.5,63.2 75.5,48 75.5,32.8 63.2,20.5 48,20.5 Z m 0,51.6 C 34.7,72.1 23.9,61.3 23.9,48 23.9,34.7 34.7,23.9 48,23.9 61.3,23.9 72.1,34.7 72.1,48 72.1,61.3 61.3,72.1 48,72.1 Z"
       inkscape:connector-curvature="0" /></g></svg>